# Blender 5.2.0 LTS
# www.blender.org
mtllib RoomBase.mtl
o Cube
v 8.000000 -0.009074 -8.000000
v 8.000000 15.990926 8.000000
v 8.000000 -0.009074 8.000000
v -8.000000 15.990926 -8.000000
v -8.000000 -0.009074 -8.000000
v -8.000000 15.990926 8.000000
v -8.000000 -0.009074 8.000000
v -6.000000 1.990926 6.000000
v -6.000000 15.990926 -8.000000
v -6.000000 15.990926 6.000000
v 8.000000 15.990926 6.000000
v 8.000000 1.990926 -8.000000
v 8.000000 1.990926 6.000000
v -6.000000 1.990926 -8.000000
v -4.727273 15.990926 6.000000
v -3.454545 15.990926 6.000000
v -2.181818 15.990926 6.000000
v -0.909091 15.990926 6.000000
v 0.363637 15.990926 6.000000
v 1.636364 15.990926 6.000000
v 2.909091 15.990926 6.000000
v 4.181818 15.990926 6.000000
v 5.454545 15.990926 6.000000
v 6.727273 15.990926 6.000000
v -6.000000 15.990926 -6.727273
v -6.000000 15.990926 -5.454545
v -6.000000 15.990926 -4.181818
v -6.000000 15.990926 -2.909091
v -6.000000 15.990926 -1.636363
v -6.000000 15.990926 -0.363636
v -6.000000 15.990926 0.909091
v -6.000000 15.990926 2.181818
v -6.000000 15.990926 3.454546
v -6.000000 15.990926 4.727273
v -7.818182 15.990926 -8.000000
v -7.636364 15.990926 -8.000000
v -7.454546 15.990926 -8.000000
v -7.272728 15.990926 -8.000000
v -7.090909 15.990926 -8.000000
v -6.909091 15.990926 -8.000000
v -6.727273 15.990926 -8.000000
v -6.545455 15.990926 -8.000000
v -6.363636 15.990926 -8.000000
v -6.181818 15.990926 -8.000000
v -8.000000 15.990926 -6.545455
v -8.000000 15.990926 -5.090909
v -8.000000 15.990926 -3.636364
v -8.000000 15.990926 -2.181818
v -8.000000 15.990926 -0.727273
v -8.000000 15.990926 0.727273
v -8.000000 15.990926 2.181818
v -8.000000 15.990926 3.636364
v -8.000000 15.990926 5.090909
v -8.000000 15.990926 6.545455
v 6.545455 15.990926 8.000000
v 5.090909 15.990926 8.000000
v 3.636364 15.990926 8.000000
v 2.181818 15.990926 8.000000
v 0.727273 15.990926 8.000000
v -0.727273 15.990926 8.000000
v -2.181818 15.990926 8.000000
v -3.636364 15.990926 8.000000
v -5.090909 15.990926 8.000000
v -6.545455 15.990926 8.000000
v 8.000000 15.990926 7.818182
v 8.000000 15.990926 7.636364
v 8.000000 15.990926 7.454546
v 8.000000 15.990926 7.272728
v 8.000000 15.990926 7.090909
v 8.000000 15.990926 6.909091
v 8.000000 15.990926 6.727273
v 8.000000 15.990926 6.545455
v 8.000000 15.990926 6.363636
v 8.000000 15.990926 6.181818
v 6.545455 -0.009074 8.000000
v 5.090909 -0.009074 8.000000
v 3.636364 -0.009074 8.000000
v 2.181818 -0.009074 8.000000
v 0.727273 -0.009074 8.000000
v -0.727273 -0.009074 8.000000
v -2.181818 -0.009074 8.000000
v -3.636364 -0.009074 8.000000
v -5.090909 -0.009074 8.000000
v -6.545455 -0.009074 8.000000
v 8.000000 14.536381 8.000000
v 8.000000 13.081835 8.000000
v 8.000000 11.627289 8.000000
v 8.000000 10.172744 8.000000
v 8.000000 8.718199 8.000000
v 8.000000 7.263653 8.000000
v 8.000000 5.809108 8.000000
v 8.000000 4.354562 8.000000
v 8.000000 2.900017 8.000000
v 8.000000 1.445471 8.000000
v -8.000000 14.536381 8.000000
v -8.000000 13.081835 8.000000
v -8.000000 11.627289 8.000000
v -8.000000 10.172744 8.000000
v -8.000000 8.718199 8.000000
v -8.000000 7.263653 8.000000
v -8.000000 5.809108 8.000000
v -8.000000 4.354562 8.000000
v -8.000000 2.900017 8.000000
v -8.000000 1.445471 8.000000
v -8.000000 -0.009074 -6.545455
v -8.000000 -0.009074 -5.090909
v -8.000000 -0.009074 -3.636364
v -8.000000 -0.009074 -2.181818
v -8.000000 -0.009074 -0.727273
v -8.000000 -0.009074 0.727273
v -8.000000 -0.009074 2.181818
v -8.000000 -0.009074 3.636364
v -8.000000 -0.009074 5.090909
v -8.000000 -0.009074 6.545455
v -8.000000 14.536381 -8.000000
v -8.000000 13.081835 -8.000000
v -8.000000 11.627289 -8.000000
v -8.000000 10.172744 -8.000000
v -8.000000 8.718199 -8.000000
v -8.000000 7.263653 -8.000000
v -8.000000 5.809108 -8.000000
v -8.000000 4.354562 -8.000000
v -8.000000 2.900017 -8.000000
v -8.000000 1.445471 -8.000000
v 6.545455 -0.009074 -8.000000
v 5.090909 -0.009074 -8.000000
v 3.636364 -0.009074 -8.000000
v 2.181818 -0.009074 -8.000000
v 0.727273 -0.009074 -8.000000
v -0.727273 -0.009074 -8.000000
v -2.181818 -0.009074 -8.000000
v -3.636364 -0.009074 -8.000000
v -5.090909 -0.009074 -8.000000
v -6.545455 -0.009074 -8.000000
v 8.000000 -0.009074 -6.545455
v 8.000000 -0.009074 -5.090909
v 8.000000 -0.009074 -3.636364
v 8.000000 -0.009074 -2.181818
v 8.000000 -0.009074 -0.727273
v 8.000000 -0.009074 0.727273
v 8.000000 -0.009074 2.181818
v 8.000000 -0.009074 3.636364
v 8.000000 -0.009074 5.090909
v 8.000000 -0.009074 6.545455
v 8.000000 0.172744 -8.000000
v 8.000000 0.354562 -8.000000
v 8.000000 0.536380 -8.000000
v 8.000000 0.718198 -8.000000
v 8.000000 0.900016 -8.000000
v 8.000000 1.081835 -8.000000
v 8.000000 1.263653 -8.000000
v 8.000000 1.445471 -8.000000
v 8.000000 1.627289 -8.000000
v 8.000000 1.809108 -8.000000
v 8.000000 1.990926 -6.727273
v 8.000000 1.990926 -5.454545
v 8.000000 1.990926 -4.181818
v 8.000000 1.990926 -2.909091
v 8.000000 1.990926 -1.636363
v 8.000000 1.990926 -0.363636
v 8.000000 1.990926 0.909091
v 8.000000 1.990926 2.181818
v 8.000000 1.990926 3.454546
v 8.000000 1.990926 4.727273
v 8.000000 14.718199 6.000000
v 8.000000 13.445471 6.000000
v 8.000000 12.172744 6.000000
v 8.000000 10.900017 6.000000
v 8.000000 9.627289 6.000000
v 8.000000 8.354562 6.000000
v 8.000000 7.081835 6.000000
v 8.000000 5.809107 6.000000
v 8.000000 4.536380 6.000000
v 8.000000 3.263653 6.000000
v -6.000000 14.718199 -8.000000
v -6.000000 13.445471 -8.000000
v -6.000000 12.172744 -8.000000
v -6.000000 10.900017 -8.000000
v -6.000000 9.627289 -8.000000
v -6.000000 8.354562 -8.000000
v -6.000000 7.081835 -8.000000
v -6.000000 5.809107 -8.000000
v -6.000000 4.536380 -8.000000
v -6.000000 3.263653 -8.000000
v 6.727273 1.990926 -8.000000
v 5.454545 1.990926 -8.000000
v 4.181818 1.990926 -8.000000
v 2.909091 1.990926 -8.000000
v 1.636363 1.990926 -8.000000
v 0.363636 1.990926 -8.000000
v -0.909091 1.990926 -8.000000
v -2.181818 1.990926 -8.000000
v -3.454546 1.990926 -8.000000
v -4.727273 1.990926 -8.000000
v -4.727273 1.990926 6.000000
v -3.454545 1.990926 6.000000
v -2.181818 1.990926 6.000000
v -0.909091 1.990926 6.000000
v 0.363637 1.990926 6.000000
v 1.636364 1.990926 6.000000
v 2.909091 1.990926 6.000000
v 4.181818 1.990926 6.000000
v 5.454545 1.990926 6.000000
v 6.727273 1.990926 6.000000
v -6.000000 3.263653 6.000000
v -6.000000 4.536380 6.000000
v -6.000000 5.809108 6.000000
v -6.000000 7.081835 6.000000
v -6.000000 8.354563 6.000000
v -6.000000 9.627290 6.000000
v -6.000000 10.900017 6.000000
v -6.000000 12.172744 6.000000
v -6.000000 13.445471 6.000000
v -6.000000 14.718199 6.000000
v -6.000000 1.990926 4.727273
v -6.000000 1.990926 3.454545
v -6.000000 1.990926 2.181818
v -6.000000 1.990926 0.909091
v -6.000000 1.990926 -0.363637
v -6.000000 1.990926 -1.636364
v -6.000000 1.990926 -2.909091
v -6.000000 1.990926 -4.181818
v -6.000000 1.990926 -5.454545
v -6.000000 1.990926 -6.727273
v -4.727273 1.990926 -6.727273
v -3.454545 1.990926 -6.727273
v -2.181818 1.990926 -6.727273
v -0.909091 1.990926 -6.727273
v 0.363637 1.990926 -6.727273
v 1.636364 1.990926 -6.727273
v 2.909091 1.990926 -6.727273
v 4.181818 1.990926 -6.727273
v 5.454545 1.990926 -6.727273
v 6.727273 1.990926 -6.727273
v -4.727273 1.990926 -5.454545
v -3.454545 1.990926 -5.454545
v -2.181818 1.990926 -5.454545
v -0.909091 1.990926 -5.454545
v 0.363637 1.990926 -5.454545
v 1.636364 1.990926 -5.454545
v 2.909091 1.990926 -5.454545
v 4.181818 1.990926 -5.454545
v 5.454545 1.990926 -5.454545
v 6.727273 1.990926 -5.454545
v -4.727273 1.990926 -4.181818
v -3.454545 1.990926 -4.181818
v -2.181818 1.990926 -4.181818
v -0.909091 1.990926 -4.181818
v 0.363637 1.990926 -4.181818
v 1.636364 1.990926 -4.181818
v 2.909091 1.990926 -4.181818
v 4.181818 1.990926 -4.181818
v 5.454545 1.990926 -4.181818
v 6.727273 1.990926 -4.181818
v -4.727273 1.990926 -2.909091
v -3.454545 1.990926 -2.909091
v -2.181818 1.990926 -2.909091
v -0.909091 1.990926 -2.909091
v 0.363637 1.990926 -2.909091
v 1.636364 1.990926 -2.909091
v 2.909091 1.990926 -2.909091
v 4.181818 1.990926 -2.909091
v 5.454545 1.990926 -2.909091
v 6.727273 1.990926 -2.909091
v -4.727273 1.990926 -1.636364
v -3.454545 1.990926 -1.636364
v -2.181818 1.990926 -1.636364
v -0.909091 1.990926 -1.636364
v 0.363637 1.990926 -1.636364
v 1.636364 1.990926 -1.636364
v 2.909091 1.990926 -1.636364
v 4.181818 1.990926 -1.636364
v 5.454545 1.990926 -1.636364
v 6.727273 1.990926 -1.636364
v -4.727273 1.990926 -0.363637
v -3.454545 1.990926 -0.363637
v -2.181818 1.990926 -0.363636
v -0.909091 1.990926 -0.363636
v 0.363637 1.990926 -0.363636
v 1.636364 1.990926 -0.363636
v 2.909091 1.990926 -0.363636
v 4.181818 1.990926 -0.363636
v 5.454545 1.990926 -0.363636
v 6.727273 1.990926 -0.363636
v -4.727273 1.990926 0.909091
v -3.454545 1.990926 0.909091
v -2.181818 1.990926 0.909091
v -0.909091 1.990926 0.909091
v 0.363637 1.990926 0.909091
v 1.636364 1.990926 0.909091
v 2.909091 1.990926 0.909091
v 4.181818 1.990926 0.909091
v 5.454545 1.990926 0.909091
v 6.727273 1.990926 0.909091
v -4.727273 1.990926 2.181818
v -3.454545 1.990926 2.181818
v -2.181818 1.990926 2.181818
v -0.909091 1.990926 2.181818
v 0.363637 1.990926 2.181818
v 1.636364 1.990926 2.181818
v 2.909091 1.990926 2.181818
v 4.181818 1.990926 2.181818
v 5.454545 1.990926 2.181818
v 6.727273 1.990926 2.181818
v -4.727273 1.990926 3.454545
v -3.454545 1.990926 3.454545
v -2.181818 1.990926 3.454545
v -0.909091 1.990926 3.454545
v 0.363637 1.990926 3.454545
v 1.636364 1.990926 3.454545
v 2.909091 1.990926 3.454545
v 4.181818 1.990926 3.454545
v 5.454545 1.990926 3.454545
v 6.727273 1.990926 3.454545
v -4.727273 1.990926 4.727273
v -3.454545 1.990926 4.727273
v -2.181818 1.990926 4.727273
v -0.909091 1.990926 4.727273
v 0.363637 1.990926 4.727273
v 1.636364 1.990926 4.727273
v 2.909091 1.990926 4.727273
v 4.181818 1.990926 4.727273
v 5.454545 1.990926 4.727273
v 6.727273 1.990926 4.727273
v -6.000000 14.718199 4.727273
v -6.000000 14.718199 3.454545
v -6.000000 14.718199 2.181818
v -6.000000 14.718199 0.909091
v -6.000000 14.718199 -0.363637
v -6.000000 14.718199 -1.636364
v -6.000000 14.718199 -2.909091
v -6.000000 14.718199 -4.181818
v -6.000000 14.718199 -5.454545
v -6.000000 14.718199 -6.727273
v -6.000000 13.445471 4.727273
v -6.000000 13.445471 3.454545
v -6.000000 13.445471 2.181818
v -6.000000 13.445471 0.909091
v -6.000000 13.445471 -0.363637
v -6.000000 13.445471 -1.636364
v -6.000000 13.445471 -2.909091
v -6.000000 13.445471 -4.181818
v -6.000000 13.445471 -5.454545
v -6.000000 13.445471 -6.727273
v -6.000000 12.172744 4.727273
v -6.000000 12.172744 3.454545
v -6.000000 12.172744 2.181818
v -6.000000 12.172744 0.909091
v -6.000000 12.172744 -0.363637
v -6.000000 12.172744 -1.636364
v -6.000000 12.172744 -2.909091
v -6.000000 12.172744 -4.181818
v -6.000000 12.172744 -5.454545
v -6.000000 12.172744 -6.727273
v -6.000000 10.900017 4.727273
v -6.000000 10.900017 3.454545
v -6.000000 10.900017 2.181818
v -6.000000 10.900017 0.909091
v -6.000000 10.900017 -0.363637
v -6.000000 10.900017 -1.636364
v -6.000000 10.900017 -2.909091
v -6.000000 10.900017 -4.181818
v -6.000000 10.900017 -5.454545
v -6.000000 10.900017 -6.727273
v -6.000000 9.627290 4.727273
v -6.000000 9.627290 3.454545
v -6.000000 9.627290 2.181818
v -6.000000 9.627290 0.909091
v -6.000000 9.627290 -0.363637
v -6.000000 9.627290 -1.636364
v -6.000000 9.627290 -2.909091
v -6.000000 9.627289 -4.181818
v -6.000000 9.627289 -5.454545
v -6.000000 9.627289 -6.727273
v -6.000000 8.354563 4.727273
v -6.000000 8.354563 3.454545
v -6.000000 8.354563 2.181818
v -6.000000 8.354562 0.909091
v -6.000000 8.354562 -0.363637
v -6.000000 8.354562 -1.636364
v -6.000000 8.354562 -2.909091
v -6.000000 8.354562 -4.181818
v -6.000000 8.354562 -5.454545
v -6.000000 8.354562 -6.727273
v -6.000000 7.081835 4.727273
v -6.000000 7.081835 3.454545
v -6.000000 7.081835 2.181818
v -6.000000 7.081835 0.909091
v -6.000000 7.081835 -0.363637
v -6.000000 7.081835 -1.636364
v -6.000000 7.081835 -2.909091
v -6.000000 7.081835 -4.181818
v -6.000000 7.081835 -5.454545
v -6.000000 7.081835 -6.727273
v -6.000000 5.809108 4.727273
v -6.000000 5.809108 3.454545
v -6.000000 5.809108 2.181818
v -6.000000 5.809108 0.909091
v -6.000000 5.809108 -0.363637
v -6.000000 5.809108 -1.636364
v -6.000000 5.809108 -2.909091
v -6.000000 5.809108 -4.181818
v -6.000000 5.809108 -5.454545
v -6.000000 5.809107 -6.727273
v -6.000000 4.536380 4.727273
v -6.000000 4.536380 3.454545
v -6.000000 4.536380 2.181818
v -6.000000 4.536380 0.909091
v -6.000000 4.536380 -0.363637
v -6.000000 4.536380 -1.636364
v -6.000000 4.536380 -2.909091
v -6.000000 4.536380 -4.181818
v -6.000000 4.536380 -5.454545
v -6.000000 4.536380 -6.727273
v -6.000000 3.263653 4.727273
v -6.000000 3.263653 3.454545
v -6.000000 3.263653 2.181818
v -6.000000 3.263653 0.909091
v -6.000000 3.263653 -0.363637
v -6.000000 3.263653 -1.636364
v -6.000000 3.263653 -2.909091
v -6.000000 3.263653 -4.181818
v -6.000000 3.263653 -5.454545
v -6.000000 3.263653 -6.727273
v 6.727273 3.263653 6.000000
v 6.727273 4.536380 6.000000
v 6.727273 5.809108 6.000000
v 6.727273 7.081835 6.000000
v 6.727273 8.354563 6.000000
v 6.727273 9.627290 6.000000
v 6.727273 10.900017 6.000000
v 6.727273 12.172744 6.000000
v 6.727273 13.445471 6.000000
v 6.727273 14.718199 6.000000
v 5.454545 3.263653 6.000000
v 5.454545 4.536380 6.000000
v 5.454545 5.809108 6.000000
v 5.454545 7.081835 6.000000
v 5.454545 8.354563 6.000000
v 5.454545 9.627290 6.000000
v 5.454545 10.900017 6.000000
v 5.454545 12.172744 6.000000
v 5.454545 13.445471 6.000000
v 5.454545 14.718199 6.000000
v 4.181818 3.263653 6.000000
v 4.181818 4.536380 6.000000
v 4.181818 5.809108 6.000000
v 4.181818 7.081835 6.000000
v 4.181818 8.354563 6.000000
v 4.181818 9.627290 6.000000
v 4.181818 10.900017 6.000000
v 4.181818 12.172744 6.000000
v 4.181818 13.445471 6.000000
v 4.181818 14.718199 6.000000
v 2.909091 3.263653 6.000000
v 2.909091 4.536380 6.000000
v 2.909091 5.809108 6.000000
v 2.909091 7.081835 6.000000
v 2.909091 8.354563 6.000000
v 2.909091 9.627290 6.000000
v 2.909091 10.900017 6.000000
v 2.909091 12.172744 6.000000
v 2.909091 13.445471 6.000000
v 2.909091 14.718199 6.000000
v 1.636364 3.263653 6.000000
v 1.636364 4.536380 6.000000
v 1.636364 5.809108 6.000000
v 1.636364 7.081835 6.000000
v 1.636364 8.354563 6.000000
v 1.636364 9.627290 6.000000
v 1.636364 10.900017 6.000000
v 1.636364 12.172744 6.000000
v 1.636364 13.445471 6.000000
v 1.636364 14.718199 6.000000
v 0.363637 3.263653 6.000000
v 0.363637 4.536380 6.000000
v 0.363637 5.809108 6.000000
v 0.363637 7.081835 6.000000
v 0.363637 8.354563 6.000000
v 0.363637 9.627290 6.000000
v 0.363637 10.900017 6.000000
v 0.363637 12.172744 6.000000
v 0.363637 13.445471 6.000000
v 0.363637 14.718199 6.000000
v -0.909091 3.263653 6.000000
v -0.909091 4.536380 6.000000
v -0.909091 5.809108 6.000000
v -0.909091 7.081835 6.000000
v -0.909091 8.354563 6.000000
v -0.909091 9.627290 6.000000
v -0.909091 10.900017 6.000000
v -0.909091 12.172744 6.000000
v -0.909091 13.445471 6.000000
v -0.909091 14.718199 6.000000
v -2.181818 3.263653 6.000000
v -2.181818 4.536380 6.000000
v -2.181818 5.809108 6.000000
v -2.181818 7.081835 6.000000
v -2.181818 8.354563 6.000000
v -2.181818 9.627290 6.000000
v -2.181818 10.900017 6.000000
v -2.181818 12.172744 6.000000
v -2.181818 13.445471 6.000000
v -2.181818 14.718199 6.000000
v -3.454545 3.263653 6.000000
v -3.454545 4.536380 6.000000
v -3.454545 5.809108 6.000000
v -3.454545 7.081835 6.000000
v -3.454545 8.354563 6.000000
v -3.454545 9.627290 6.000000
v -3.454545 10.900017 6.000000
v -3.454545 12.172744 6.000000
v -3.454545 13.445471 6.000000
v -3.454545 14.718199 6.000000
v -4.727273 3.263653 6.000000
v -4.727273 4.536380 6.000000
v -4.727273 5.809108 6.000000
v -4.727273 7.081835 6.000000
v -4.727273 8.354563 6.000000
v -4.727273 9.627290 6.000000
v -4.727273 10.900017 6.000000
v -4.727273 12.172744 6.000000
v -4.727273 13.445471 6.000000
v -4.727273 14.718199 6.000000
v -6.545455 -0.009074 -6.545455
v -6.545455 -0.009074 -5.090909
v -6.545455 -0.009074 -3.636364
v -6.545455 -0.009074 -2.181818
v -6.545455 -0.009074 -0.727273
v -6.545455 -0.009074 0.727273
v -6.545455 -0.009074 2.181818
v -6.545455 -0.009074 3.636364
v -6.545455 -0.009074 5.090909
v -6.545455 -0.009074 6.545455
v -5.090909 -0.009074 -6.545455
v -5.090909 -0.009074 -5.090909
v -5.090909 -0.009074 -3.636364
v -5.090909 -0.009074 -2.181818
v -5.090909 -0.009074 -0.727273
v -5.090909 -0.009074 0.727273
v -5.090909 -0.009074 2.181818
v -5.090909 -0.009074 3.636364
v -5.090909 -0.009074 5.090909
v -5.090909 -0.009074 6.545455
v -3.636364 -0.009074 -6.545455
v -3.636364 -0.009074 -5.090909
v -3.636364 -0.009074 -3.636364
v -3.636364 -0.009074 -2.181818
v -3.636364 -0.009074 -0.727273
v -3.636364 -0.009074 0.727273
v -3.636364 -0.009074 2.181818
v -3.636364 -0.009074 3.636364
v -3.636364 -0.009074 5.090909
v -3.636364 -0.009074 6.545455
v -2.181818 -0.009074 -6.545455
v -2.181818 -0.009074 -5.090909
v -2.181818 -0.009074 -3.636364
v -2.181818 -0.009074 -2.181818
v -2.181818 -0.009074 -0.727273
v -2.181818 -0.009074 0.727273
v -2.181818 -0.009074 2.181818
v -2.181818 -0.009074 3.636364
v -2.181818 -0.009074 5.090909
v -2.181818 -0.009074 6.545455
v -0.727273 -0.009074 -6.545455
v -0.727273 -0.009074 -5.090909
v -0.727273 -0.009074 -3.636364
v -0.727273 -0.009074 -2.181818
v -0.727273 -0.009074 -0.727273
v -0.727273 -0.009074 0.727273
v -0.727273 -0.009074 2.181818
v -0.727273 -0.009074 3.636364
v -0.727273 -0.009074 5.090909
v -0.727273 -0.009074 6.545455
v 0.727273 -0.009074 -6.545455
v 0.727273 -0.009074 -5.090909
v 0.727273 -0.009074 -3.636364
v 0.727273 -0.009074 -2.181818
v 0.727273 -0.009074 -0.727273
v 0.727273 -0.009074 0.727273
v 0.727273 -0.009074 2.181818
v 0.727273 -0.009074 3.636364
v 0.727273 -0.009074 5.090909
v 0.727273 -0.009074 6.545455
v 2.181818 -0.009074 -6.545455
v 2.181818 -0.009074 -5.090909
v 2.181818 -0.009074 -3.636364
v 2.181818 -0.009074 -2.181818
v 2.181818 -0.009074 -0.727273
v 2.181818 -0.009074 0.727273
v 2.181818 -0.009074 2.181818
v 2.181818 -0.009074 3.636364
v 2.181818 -0.009074 5.090909
v 2.181818 -0.009074 6.545455
v 3.636364 -0.009074 -6.545455
v 3.636364 -0.009074 -5.090909
v 3.636364 -0.009074 -3.636364
v 3.636364 -0.009074 -2.181818
v 3.636364 -0.009074 -0.727273
v 3.636364 -0.009074 0.727273
v 3.636364 -0.009074 2.181818
v 3.636364 -0.009074 3.636364
v 3.636364 -0.009074 5.090909
v 3.636364 -0.009074 6.545455
v 5.090909 -0.009074 -6.545455
v 5.090909 -0.009074 -5.090909
v 5.090909 -0.009074 -3.636364
v 5.090909 -0.009074 -2.181818
v 5.090909 -0.009074 -0.727273
v 5.090909 -0.009074 0.727273
v 5.090909 -0.009074 2.181818
v 5.090909 -0.009074 3.636364
v 5.090909 -0.009074 5.090909
v 5.090909 -0.009074 6.545455
v 6.545455 -0.009074 -6.545455
v 6.545455 -0.009074 -5.090909
v 6.545455 -0.009074 -3.636364
v 6.545455 -0.009074 -2.181818
v 6.545455 -0.009074 -0.727273
v 6.545455 -0.009074 0.727273
v 6.545455 -0.009074 2.181818
v 6.545455 -0.009074 3.636364
v 6.545455 -0.009074 5.090909
v 6.545455 -0.009074 6.545455
v -8.000000 1.445471 6.545455
v -8.000000 1.445471 5.090909
v -8.000000 1.445471 3.636364
v -8.000000 1.445471 2.181818
v -8.000000 1.445471 0.727273
v -8.000000 1.445471 -0.727273
v -8.000000 1.445471 -2.181818
v -8.000000 1.445471 -3.636364
v -8.000000 1.445471 -5.090909
v -8.000000 1.445471 -6.545455
v -8.000000 2.900017 6.545455
v -8.000000 2.900017 5.090909
v -8.000000 2.900017 3.636364
v -8.000000 2.900017 2.181818
v -8.000000 2.900017 0.727273
v -8.000000 2.900017 -0.727273
v -8.000000 2.900017 -2.181818
v -8.000000 2.900017 -3.636364
v -8.000000 2.900017 -5.090909
v -8.000000 2.900017 -6.545455
v -8.000000 4.354562 6.545455
v -8.000000 4.354562 5.090909
v -8.000000 4.354562 3.636364
v -8.000000 4.354562 2.181818
v -8.000000 4.354562 0.727273
v -8.000000 4.354562 -0.727273
v -8.000000 4.354562 -2.181818
v -8.000000 4.354562 -3.636364
v -8.000000 4.354562 -5.090909
v -8.000000 4.354562 -6.545455
v -8.000000 5.809108 6.545455
v -8.000000 5.809108 5.090909
v -8.000000 5.809108 3.636364
v -8.000000 5.809108 2.181818
v -8.000000 5.809108 0.727273
v -8.000000 5.809108 -0.727273
v -8.000000 5.809108 -2.181818
v -8.000000 5.809108 -3.636364
v -8.000000 5.809108 -5.090909
v -8.000000 5.809108 -6.545455
v -8.000000 7.263653 6.545455
v -8.000000 7.263653 5.090909
v -8.000000 7.263653 3.636364
v -8.000000 7.263653 2.181818
v -8.000000 7.263653 0.727273
v -8.000000 7.263653 -0.727273
v -8.000000 7.263653 -2.181818
v -8.000000 7.263653 -3.636364
v -8.000000 7.263653 -5.090909
v -8.000000 7.263653 -6.545455
v -8.000000 8.718199 6.545455
v -8.000000 8.718199 5.090909
v -8.000000 8.718199 3.636364
v -8.000000 8.718199 2.181818
v -8.000000 8.718199 0.727273
v -8.000000 8.718199 -0.727273
v -8.000000 8.718199 -2.181818
v -8.000000 8.718199 -3.636364
v -8.000000 8.718199 -5.090909
v -8.000000 8.718199 -6.545455
v -8.000000 10.172744 6.545455
v -8.000000 10.172744 5.090909
v -8.000000 10.172744 3.636364
v -8.000000 10.172744 2.181818
v -8.000000 10.172744 0.727273
v -8.000000 10.172744 -0.727273
v -8.000000 10.172744 -2.181818
v -8.000000 10.172744 -3.636364
v -8.000000 10.172744 -5.090909
v -8.000000 10.172744 -6.545455
v -8.000000 11.627289 6.545455
v -8.000000 11.627289 5.090909
v -8.000000 11.627289 3.636364
v -8.000000 11.627289 2.181818
v -8.000000 11.627289 0.727273
v -8.000000 11.627289 -0.727273
v -8.000000 11.627289 -2.181818
v -8.000000 11.627289 -3.636364
v -8.000000 11.627289 -5.090909
v -8.000000 11.627289 -6.545455
v -8.000000 13.081835 6.545455
v -8.000000 13.081835 5.090909
v -8.000000 13.081835 3.636364
v -8.000000 13.081835 2.181818
v -8.000000 13.081835 0.727273
v -8.000000 13.081835 -0.727273
v -8.000000 13.081835 -2.181818
v -8.000000 13.081835 -3.636364
v -8.000000 13.081835 -5.090909
v -8.000000 13.081835 -6.545455
v -8.000000 14.536381 6.545455
v -8.000000 14.536381 5.090909
v -8.000000 14.536381 3.636364
v -8.000000 14.536381 2.181818
v -8.000000 14.536381 0.727273
v -8.000000 14.536381 -0.727273
v -8.000000 14.536381 -2.181818
v -8.000000 14.536381 -3.636364
v -8.000000 14.536381 -5.090909
v -8.000000 14.536381 -6.545455
v 6.545455 1.445471 8.000000
v 5.090909 1.445471 8.000000
v 3.636364 1.445471 8.000000
v 2.181818 1.445471 8.000000
v 0.727273 1.445471 8.000000
v -0.727273 1.445471 8.000000
v -2.181818 1.445471 8.000000
v -3.636364 1.445471 8.000000
v -5.090909 1.445471 8.000000
v -6.545455 1.445471 8.000000
v 6.545455 2.900017 8.000000
v 5.090909 2.900017 8.000000
v 3.636364 2.900017 8.000000
v 2.181818 2.900017 8.000000
v 0.727273 2.900017 8.000000
v -0.727273 2.900017 8.000000
v -2.181818 2.900017 8.000000
v -3.636364 2.900017 8.000000
v -5.090909 2.900017 8.000000
v -6.545455 2.900017 8.000000
v 6.545455 4.354562 8.000000
v 5.090909 4.354562 8.000000
v 3.636364 4.354562 8.000000
v 2.181818 4.354562 8.000000
v 0.727273 4.354562 8.000000
v -0.727273 4.354562 8.000000
v -2.181818 4.354562 8.000000
v -3.636364 4.354562 8.000000
v -5.090909 4.354562 8.000000
v -6.545455 4.354562 8.000000
v 6.545455 5.809108 8.000000
v 5.090909 5.809108 8.000000
v 3.636364 5.809108 8.000000
v 2.181818 5.809108 8.000000
v 0.727273 5.809108 8.000000
v -0.727273 5.809108 8.000000
v -2.181818 5.809108 8.000000
v -3.636364 5.809108 8.000000
v -5.090909 5.809108 8.000000
v -6.545455 5.809108 8.000000
v 6.545455 7.263653 8.000000
v 5.090909 7.263653 8.000000
v 3.636364 7.263653 8.000000
v 2.181818 7.263653 8.000000
v 0.727273 7.263653 8.000000
v -0.727273 7.263653 8.000000
v -2.181818 7.263653 8.000000
v -3.636364 7.263653 8.000000
v -5.090909 7.263653 8.000000
v -6.545455 7.263653 8.000000
v 6.545455 8.718199 8.000000
v 5.090909 8.718199 8.000000
v 3.636364 8.718199 8.000000
v 2.181818 8.718199 8.000000
v 0.727273 8.718199 8.000000
v -0.727273 8.718199 8.000000
v -2.181818 8.718199 8.000000
v -3.636364 8.718199 8.000000
v -5.090909 8.718199 8.000000
v -6.545455 8.718199 8.000000
v 6.545455 10.172744 8.000000
v 5.090909 10.172744 8.000000
v 3.636364 10.172744 8.000000
v 2.181818 10.172744 8.000000
v 0.727273 10.172744 8.000000
v -0.727273 10.172744 8.000000
v -2.181818 10.172744 8.000000
v -3.636364 10.172744 8.000000
v -5.090909 10.172744 8.000000
v -6.545455 10.172744 8.000000
v 6.545455 11.627289 8.000000
v 5.090909 11.627289 8.000000
v 3.636364 11.627289 8.000000
v 2.181818 11.627289 8.000000
v 0.727273 11.627289 8.000000
v -0.727273 11.627289 8.000000
v -2.181818 11.627289 8.000000
v -3.636364 11.627289 8.000000
v -5.090909 11.627289 8.000000
v -6.545455 11.627289 8.000000
v 6.545455 13.081835 8.000000
v 5.090909 13.081835 8.000000
v 3.636364 13.081835 8.000000
v 2.181818 13.081835 8.000000
v 0.727273 13.081835 8.000000
v -0.727273 13.081835 8.000000
v -2.181818 13.081835 8.000000
v -3.636364 13.081835 8.000000
v -5.090909 13.081835 8.000000
v -6.545455 13.081835 8.000000
v 6.545455 14.536381 8.000000
v 5.090909 14.536381 8.000000
v 3.636364 14.536381 8.000000
v 2.181818 14.536381 8.000000
v 0.727273 14.536381 8.000000
v -0.727273 14.536381 8.000000
v -2.181818 14.536381 8.000000
v -3.636364 14.536381 8.000000
v -5.090909 14.536381 8.000000
v -6.545455 14.536381 8.000000
vn -0.0000 1.0000 -0.0000
vn -0.0000 -0.0000 1.0000
vn -1.0000 -0.0000 -0.0000
vn -0.0000 -1.0000 -0.0000
vn 1.0000 -0.0000 -0.0000
vn -0.0000 -0.0000 -1.0000
vt 0.843750 0.718750
vt 0.843750 0.698864
vt 0.843750 0.678977
vt 0.843750 0.659091
vt 0.843750 0.639205
vt 0.843750 0.619318
vt 0.843750 0.599432
vt 0.843750 0.579545
vt 0.843750 0.559659
vt 0.843750 0.539773
vt 0.843750 0.519886
vt 0.843750 0.500000
vt 0.846591 0.500000
vt 0.849432 0.500000
vt 0.852273 0.500000
vt 0.855114 0.500000
vt 0.857955 0.500000
vt 0.860795 0.500000
vt 0.863636 0.500000
vt 0.866477 0.500000
vt 0.869318 0.500000
vt 0.872159 0.500000
vt 0.875000 0.500000
vt 0.875000 0.522727
vt 0.875000 0.545455
vt 0.875000 0.568182
vt 0.875000 0.590909
vt 0.875000 0.613636
vt 0.875000 0.636364
vt 0.875000 0.659091
vt 0.875000 0.681818
vt 0.875000 0.704545
vt 0.875000 0.727273
vt 0.875000 0.750000
vt 0.852273 0.750000
vt 0.829545 0.750000
vt 0.806818 0.750000
vt 0.784091 0.750000
vt 0.761364 0.750000
vt 0.738636 0.750000
vt 0.715909 0.750000
vt 0.693182 0.750000
vt 0.670455 0.750000
vt 0.647727 0.750000
vt 0.625000 0.750000
vt 0.625000 0.747159
vt 0.625000 0.744318
vt 0.625000 0.741477
vt 0.625000 0.738636
vt 0.625000 0.735795
vt 0.625000 0.732955
vt 0.625000 0.730114
vt 0.625000 0.727273
vt 0.625000 0.724432
vt 0.625000 0.721591
vt 0.625000 0.718750
vt 0.644886 0.718750
vt 0.664773 0.718750
vt 0.684659 0.718750
vt 0.704545 0.718750
vt 0.724432 0.718750
vt 0.744318 0.718750
vt 0.764205 0.718750
vt 0.784091 0.718750
vt 0.803977 0.718750
vt 0.823864 0.718750
vt 0.602273 0.977273
vt 0.625000 0.977273
vt 0.625000 1.000000
vt 0.602273 1.000000
vt 0.602273 0.227273
vt 0.625000 0.227273
vt 0.625000 0.250000
vt 0.602273 0.250000
vt 0.352273 0.727273
vt 0.375000 0.727273
vt 0.375000 0.750000
vt 0.352273 0.750000
vt 0.602273 0.750000
vt 0.579545 0.750000
vt 0.556818 0.750000
vt 0.534091 0.750000
vt 0.511364 0.750000
vt 0.488636 0.750000
vt 0.465909 0.750000
vt 0.443182 0.750000
vt 0.420455 0.750000
vt 0.397727 0.750000
vt 0.375000 0.704545
vt 0.375000 0.681818
vt 0.375000 0.659091
vt 0.375000 0.636364
vt 0.375000 0.613636
vt 0.375000 0.590909
vt 0.375000 0.568182
vt 0.375000 0.545455
vt 0.375000 0.522727
vt 0.375000 0.500000
vt 0.377841 0.500000
vt 0.380682 0.500000
vt 0.383523 0.500000
vt 0.386364 0.500000
vt 0.389205 0.500000
vt 0.392045 0.500000
vt 0.394886 0.500000
vt 0.397727 0.500000
vt 0.400568 0.500000
vt 0.403409 0.500000
vt 0.406250 0.500000
vt 0.406250 0.519886
vt 0.406250 0.539773
vt 0.406250 0.559659
vt 0.406250 0.579545
vt 0.406250 0.599432
vt 0.406250 0.619318
vt 0.406250 0.639205
vt 0.406250 0.659091
vt 0.406250 0.678977
vt 0.406250 0.698864
vt 0.406250 0.718750
vt 0.426136 0.718750
vt 0.446023 0.718750
vt 0.465909 0.718750
vt 0.485795 0.718750
vt 0.505682 0.718750
vt 0.525568 0.718750
vt 0.545455 0.718750
vt 0.565341 0.718750
vt 0.585227 0.718750
vt 0.605114 0.718750
vt 0.375000 0.477273
vt 0.375000 0.454545
vt 0.375000 0.431818
vt 0.375000 0.409091
vt 0.375000 0.386364
vt 0.375000 0.363636
vt 0.375000 0.340909
vt 0.375000 0.318182
vt 0.375000 0.295455
vt 0.375000 0.272727
vt 0.375000 0.250000
vt 0.397727 0.250000
vt 0.420455 0.250000
vt 0.443182 0.250000
vt 0.465909 0.250000
vt 0.488636 0.250000
vt 0.511364 0.250000
vt 0.534091 0.250000
vt 0.556818 0.250000
vt 0.579545 0.250000
vt 0.625000 0.252841
vt 0.625000 0.255682
vt 0.625000 0.258523
vt 0.625000 0.261364
vt 0.625000 0.264205
vt 0.625000 0.267045
vt 0.625000 0.269886
vt 0.625000 0.272727
vt 0.625000 0.275568
vt 0.625000 0.278409
vt 0.625000 0.281250
vt 0.605114 0.281250
vt 0.585227 0.281250
vt 0.565341 0.281250
vt 0.545455 0.281250
vt 0.525568 0.281250
vt 0.505682 0.281250
vt 0.485795 0.281250
vt 0.465909 0.281250
vt 0.446023 0.281250
vt 0.426136 0.281250
vt 0.406250 0.281250
vt 0.406250 0.301136
vt 0.406250 0.321023
vt 0.406250 0.340909
vt 0.406250 0.360795
vt 0.406250 0.380682
vt 0.406250 0.400568
vt 0.406250 0.420455
vt 0.406250 0.440341
vt 0.406250 0.460227
vt 0.406250 0.480114
vt 0.573864 0.980114
vt 0.573864 1.000000
vt 0.593750 1.000000
vt 0.593750 0.980114
vt 0.394886 0.198864
vt 0.375000 0.198864
vt 0.375000 0.218750
vt 0.394886 0.218750
vt 0.323864 0.730114
vt 0.323864 0.750000
vt 0.343750 0.750000
vt 0.343750 0.730114
vt 0.323864 0.531250
vt 0.323864 0.551136
vt 0.343750 0.551136
vt 0.343750 0.531250
vt 0.323864 0.571023
vt 0.343750 0.571023
vt 0.323864 0.590909
vt 0.343750 0.590909
vt 0.323864 0.610795
vt 0.343750 0.610795
vt 0.323864 0.630682
vt 0.343750 0.630682
vt 0.323864 0.650568
vt 0.343750 0.650568
vt 0.323864 0.670455
vt 0.343750 0.670455
vt 0.323864 0.690341
vt 0.343750 0.690341
vt 0.323864 0.710227
vt 0.343750 0.710227
vt 0.125000 0.531250
vt 0.125000 0.551136
vt 0.144886 0.551136
vt 0.144886 0.531250
vt 0.164773 0.551136
vt 0.164773 0.531250
vt 0.184659 0.551136
vt 0.184659 0.531250
vt 0.204545 0.551136
vt 0.204545 0.531250
vt 0.224432 0.551136
vt 0.224432 0.531250
vt 0.244318 0.551136
vt 0.244318 0.531250
vt 0.264205 0.551136
vt 0.264205 0.531250
vt 0.284091 0.551136
vt 0.284091 0.531250
vt 0.303977 0.551136
vt 0.303977 0.531250
vt 0.125000 0.571023
vt 0.144886 0.571023
vt 0.164773 0.571023
vt 0.184659 0.571023
vt 0.204545 0.571023
vt 0.224432 0.571023
vt 0.244318 0.571023
vt 0.264205 0.571023
vt 0.284091 0.571023
vt 0.303977 0.571023
vt 0.125000 0.590909
vt 0.144886 0.590909
vt 0.164773 0.590909
vt 0.184659 0.590909
vt 0.204545 0.590909
vt 0.224432 0.590909
vt 0.244318 0.590909
vt 0.264205 0.590909
vt 0.284091 0.590909
vt 0.303977 0.590909
vt 0.125000 0.610795
vt 0.144886 0.610795
vt 0.164773 0.610795
vt 0.184659 0.610795
vt 0.204545 0.610795
vt 0.224432 0.610795
vt 0.244318 0.610795
vt 0.264205 0.610795
vt 0.284091 0.610795
vt 0.303977 0.610795
vt 0.125000 0.630682
vt 0.144886 0.630682
vt 0.164773 0.630682
vt 0.184659 0.630682
vt 0.204545 0.630682
vt 0.224432 0.630682
vt 0.244318 0.630682
vt 0.264205 0.630682
vt 0.284091 0.630682
vt 0.303977 0.630682
vt 0.125000 0.650568
vt 0.144886 0.650568
vt 0.164773 0.650568
vt 0.184659 0.650568
vt 0.204545 0.650568
vt 0.224432 0.650568
vt 0.244318 0.650568
vt 0.264205 0.650568
vt 0.284091 0.650568
vt 0.303977 0.650568
vt 0.125000 0.670455
vt 0.144886 0.670454
vt 0.164773 0.670454
vt 0.184659 0.670454
vt 0.204545 0.670454
vt 0.224432 0.670455
vt 0.244318 0.670455
vt 0.264205 0.670455
vt 0.284091 0.670455
vt 0.303977 0.670455
vt 0.125000 0.690341
vt 0.144886 0.690341
vt 0.164773 0.690341
vt 0.184659 0.690341
vt 0.204545 0.690341
vt 0.224432 0.690341
vt 0.244318 0.690341
vt 0.264205 0.690341
vt 0.284091 0.690341
vt 0.303977 0.690341
vt 0.125000 0.710227
vt 0.144886 0.710227
vt 0.164773 0.710227
vt 0.184659 0.710227
vt 0.204545 0.710227
vt 0.224432 0.710227
vt 0.244318 0.710227
vt 0.264205 0.710227
vt 0.284091 0.710227
vt 0.303977 0.710227
vt 0.125000 0.730114
vt 0.144886 0.730114
vt 0.164773 0.730114
vt 0.184659 0.730114
vt 0.204545 0.730114
vt 0.224432 0.730114
vt 0.244318 0.730114
vt 0.264205 0.730114
vt 0.284091 0.730114
vt 0.303977 0.730114
vt 0.125000 0.750000
vt 0.144886 0.750000
vt 0.164773 0.750000
vt 0.184659 0.750000
vt 0.204545 0.750000
vt 0.224432 0.750000
vt 0.244318 0.750000
vt 0.264205 0.750000
vt 0.284091 0.750000
vt 0.303977 0.750000
vt 0.593750 0.198864
vt 0.573864 0.198864
vt 0.573864 0.218750
vt 0.593750 0.218750
vt 0.553977 0.198864
vt 0.553977 0.218750
vt 0.534091 0.198864
vt 0.534091 0.218750
vt 0.514205 0.198864
vt 0.514205 0.218750
vt 0.494318 0.198864
vt 0.494318 0.218750
vt 0.474432 0.198864
vt 0.474432 0.218750
vt 0.454545 0.198864
vt 0.454545 0.218750
vt 0.434659 0.198864
vt 0.434659 0.218750
vt 0.414773 0.198864
vt 0.414773 0.218750
vt 0.593750 0.000000
vt 0.573864 0.000000
vt 0.573864 0.019886
vt 0.593750 0.019886
vt 0.573864 0.039773
vt 0.593750 0.039773
vt 0.573864 0.059659
vt 0.593750 0.059659
vt 0.573864 0.079545
vt 0.593750 0.079545
vt 0.573864 0.099432
vt 0.593750 0.099432
vt 0.573864 0.119318
vt 0.593750 0.119318
vt 0.573864 0.139205
vt 0.593750 0.139205
vt 0.573864 0.159091
vt 0.593750 0.159091
vt 0.573864 0.178977
vt 0.593750 0.178977
vt 0.553977 0.000000
vt 0.553977 0.019886
vt 0.553977 0.039773
vt 0.553977 0.059659
vt 0.553977 0.079545
vt 0.553977 0.099432
vt 0.553977 0.119318
vt 0.553977 0.139205
vt 0.553977 0.159091
vt 0.553977 0.178977
vt 0.534091 0.000000
vt 0.534091 0.019886
vt 0.534091 0.039773
vt 0.534091 0.059659
vt 0.534091 0.079545
vt 0.534091 0.099432
vt 0.534091 0.119318
vt 0.534091 0.139205
vt 0.534091 0.159091
vt 0.534091 0.178977
vt 0.514205 0.000000
vt 0.514205 0.019886
vt 0.514205 0.039773
vt 0.514205 0.059659
vt 0.514205 0.079545
vt 0.514205 0.099432
vt 0.514205 0.119318
vt 0.514205 0.139205
vt 0.514205 0.159091
vt 0.514205 0.178977
vt 0.494318 0.000000
vt 0.494318 0.019886
vt 0.494318 0.039773
vt 0.494318 0.059659
vt 0.494318 0.079545
vt 0.494318 0.099432
vt 0.494318 0.119318
vt 0.494318 0.139205
vt 0.494318 0.159091
vt 0.494318 0.178977
vt 0.474432 0.000000
vt 0.474432 0.019886
vt 0.474432 0.039773
vt 0.474432 0.059659
vt 0.474432 0.079545
vt 0.474432 0.099432
vt 0.474432 0.119318
vt 0.474432 0.139205
vt 0.474432 0.159091
vt 0.474432 0.178977
vt 0.454545 0.000000
vt 0.454545 0.019886
vt 0.454545 0.039773
vt 0.454545 0.059659
vt 0.454545 0.079545
vt 0.454545 0.099432
vt 0.454545 0.119318
vt 0.454545 0.139205
vt 0.454545 0.159091
vt 0.454545 0.178977
vt 0.434659 0.000000
vt 0.434659 0.019886
vt 0.434659 0.039773
vt 0.434659 0.059659
vt 0.434659 0.079545
vt 0.434659 0.099432
vt 0.434659 0.119318
vt 0.434659 0.139205
vt 0.434659 0.159091
vt 0.434659 0.178977
vt 0.414773 0.000000
vt 0.414773 0.019886
vt 0.414773 0.039773
vt 0.414773 0.059659
vt 0.414773 0.079545
vt 0.414773 0.099432
vt 0.414773 0.119318
vt 0.414773 0.139205
vt 0.414773 0.159091
vt 0.414773 0.178977
vt 0.394886 0.000000
vt 0.394886 0.019886
vt 0.394886 0.039773
vt 0.394886 0.059659
vt 0.394886 0.079545
vt 0.394886 0.099432
vt 0.394886 0.119318
vt 0.394886 0.139205
vt 0.394886 0.159091
vt 0.394886 0.178977
vt 0.375000 0.000000
vt 0.375000 0.019886
vt 0.375000 0.039773
vt 0.375000 0.059659
vt 0.375000 0.079545
vt 0.375000 0.099432
vt 0.375000 0.119318
vt 0.375000 0.139205
vt 0.375000 0.159091
vt 0.375000 0.178977
vt 0.573864 0.781250
vt 0.573864 0.801136
vt 0.593750 0.801136
vt 0.593750 0.781250
vt 0.573864 0.821023
vt 0.593750 0.821023
vt 0.573864 0.840909
vt 0.593750 0.840909
vt 0.573864 0.860795
vt 0.593750 0.860795
vt 0.573864 0.880682
vt 0.593750 0.880682
vt 0.573864 0.900568
vt 0.593750 0.900568
vt 0.573864 0.920455
vt 0.593750 0.920455
vt 0.573864 0.940341
vt 0.593750 0.940341
vt 0.573864 0.960227
vt 0.593750 0.960227
vt 0.375000 0.781250
vt 0.375000 0.801136
vt 0.394886 0.801136
vt 0.394886 0.781250
vt 0.414773 0.801136
vt 0.414773 0.781250
vt 0.434659 0.801136
vt 0.434659 0.781250
vt 0.454545 0.801136
vt 0.454545 0.781250
vt 0.474432 0.801136
vt 0.474432 0.781250
vt 0.494318 0.801136
vt 0.494318 0.781250
vt 0.514205 0.801136
vt 0.514205 0.781250
vt 0.534091 0.801136
vt 0.534091 0.781250
vt 0.553977 0.801136
vt 0.553977 0.781250
vt 0.375000 0.821023
vt 0.394886 0.821023
vt 0.414773 0.821023
vt 0.434659 0.821023
vt 0.454545 0.821023
vt 0.474432 0.821023
vt 0.494318 0.821023
vt 0.514205 0.821023
vt 0.534091 0.821023
vt 0.553977 0.821023
vt 0.375000 0.840909
vt 0.394886 0.840909
vt 0.414773 0.840909
vt 0.434659 0.840909
vt 0.454545 0.840909
vt 0.474432 0.840909
vt 0.494318 0.840909
vt 0.514205 0.840909
vt 0.534091 0.840909
vt 0.553977 0.840909
vt 0.375000 0.860795
vt 0.394886 0.860795
vt 0.414773 0.860795
vt 0.434659 0.860795
vt 0.454545 0.860795
vt 0.474432 0.860795
vt 0.494318 0.860795
vt 0.514205 0.860795
vt 0.534091 0.860795
vt 0.553977 0.860795
vt 0.375000 0.880682
vt 0.394886 0.880682
vt 0.414773 0.880682
vt 0.434659 0.880682
vt 0.454545 0.880682
vt 0.474432 0.880682
vt 0.494318 0.880682
vt 0.514205 0.880682
vt 0.534091 0.880682
vt 0.553977 0.880682
vt 0.375000 0.900568
vt 0.394886 0.900568
vt 0.414773 0.900568
vt 0.434659 0.900568
vt 0.454545 0.900568
vt 0.474432 0.900568
vt 0.494318 0.900568
vt 0.514205 0.900568
vt 0.534091 0.900568
vt 0.553977 0.900568
vt 0.375000 0.920455
vt 0.394886 0.920455
vt 0.414773 0.920455
vt 0.434659 0.920455
vt 0.454545 0.920455
vt 0.474432 0.920455
vt 0.494318 0.920455
vt 0.514205 0.920455
vt 0.534091 0.920455
vt 0.553977 0.920455
vt 0.375000 0.940341
vt 0.394886 0.940341
vt 0.414773 0.940341
vt 0.434659 0.940341
vt 0.454545 0.940341
vt 0.474432 0.940341
vt 0.494318 0.940341
vt 0.514205 0.940341
vt 0.534091 0.940341
vt 0.553977 0.940341
vt 0.375000 0.960227
vt 0.394886 0.960227
vt 0.414773 0.960227
vt 0.434659 0.960227
vt 0.454545 0.960227
vt 0.474432 0.960227
vt 0.494318 0.960227
vt 0.514205 0.960227
vt 0.534091 0.960227
vt 0.553977 0.960227
vt 0.375000 0.980114
vt 0.394886 0.980114
vt 0.414773 0.980114
vt 0.434659 0.980114
vt 0.454545 0.980114
vt 0.474432 0.980114
vt 0.494318 0.980114
vt 0.514205 0.980114
vt 0.534091 0.980114
vt 0.553977 0.980114
vt 0.375000 1.000000
vt 0.394886 1.000000
vt 0.414773 1.000000
vt 0.434659 1.000000
vt 0.454545 1.000000
vt 0.474432 1.000000
vt 0.494318 1.000000
vt 0.514205 1.000000
vt 0.534091 1.000000
vt 0.553977 1.000000
vt 0.125000 0.727273
vt 0.147727 0.727273
vt 0.147727 0.750000
vt 0.170455 0.727273
vt 0.170455 0.750000
vt 0.193182 0.727273
vt 0.193182 0.750000
vt 0.215909 0.727273
vt 0.215909 0.750000
vt 0.238636 0.727273
vt 0.238636 0.750000
vt 0.261364 0.727273
vt 0.261364 0.750000
vt 0.284091 0.727273
vt 0.284091 0.750000
vt 0.306818 0.727273
vt 0.306818 0.750000
vt 0.329545 0.727273
vt 0.329545 0.750000
vt 0.125000 0.500000
vt 0.147727 0.500000
vt 0.147727 0.522727
vt 0.125000 0.522727
vt 0.147727 0.545455
vt 0.125000 0.545455
vt 0.147727 0.568182
vt 0.125000 0.568182
vt 0.147727 0.590909
vt 0.125000 0.590909
vt 0.147727 0.613636
vt 0.125000 0.613636
vt 0.147727 0.636364
vt 0.125000 0.636364
vt 0.147727 0.659091
vt 0.125000 0.659091
vt 0.147727 0.681818
vt 0.125000 0.681818
vt 0.147727 0.704545
vt 0.125000 0.704545
vt 0.170455 0.500000
vt 0.170455 0.522727
vt 0.170455 0.545455
vt 0.170455 0.568182
vt 0.170455 0.590909
vt 0.170455 0.613636
vt 0.170455 0.636364
vt 0.170455 0.659091
vt 0.170455 0.681818
vt 0.170455 0.704545
vt 0.193182 0.500000
vt 0.193182 0.522727
vt 0.193182 0.545455
vt 0.193182 0.568182
vt 0.193182 0.590909
vt 0.193182 0.613636
vt 0.193182 0.636364
vt 0.193182 0.659091
vt 0.193182 0.681818
vt 0.193182 0.704545
vt 0.215909 0.500000
vt 0.215909 0.522727
vt 0.215909 0.545455
vt 0.215909 0.568182
vt 0.215909 0.590909
vt 0.215909 0.613636
vt 0.215909 0.636364
vt 0.215909 0.659091
vt 0.215909 0.681818
vt 0.215909 0.704545
vt 0.238636 0.500000
vt 0.238636 0.522727
vt 0.238636 0.545455
vt 0.238636 0.568182
vt 0.238636 0.590909
vt 0.238636 0.613636
vt 0.238636 0.636364
vt 0.238636 0.659091
vt 0.238636 0.681818
vt 0.238636 0.704545
vt 0.261364 0.500000
vt 0.261364 0.522727
vt 0.261364 0.545455
vt 0.261364 0.568182
vt 0.261364 0.590909
vt 0.261364 0.613636
vt 0.261364 0.636364
vt 0.261364 0.659091
vt 0.261364 0.681818
vt 0.261364 0.704545
vt 0.284091 0.500000
vt 0.284091 0.522727
vt 0.284091 0.545455
vt 0.284091 0.568182
vt 0.284091 0.590909
vt 0.284091 0.613636
vt 0.284091 0.636364
vt 0.284091 0.659091
vt 0.284091 0.681818
vt 0.284091 0.704545
vt 0.306818 0.500000
vt 0.306818 0.522727
vt 0.306818 0.545455
vt 0.306818 0.568182
vt 0.306818 0.590909
vt 0.306818 0.613636
vt 0.306818 0.636364
vt 0.306818 0.659091
vt 0.306818 0.681818
vt 0.306818 0.704545
vt 0.329545 0.500000
vt 0.329545 0.522727
vt 0.329545 0.545455
vt 0.329545 0.568182
vt 0.329545 0.590909
vt 0.329545 0.613636
vt 0.329545 0.636364
vt 0.329545 0.659091
vt 0.329545 0.681818
vt 0.329545 0.704545
vt 0.352273 0.500000
vt 0.352273 0.522727
vt 0.352273 0.545455
vt 0.352273 0.568182
vt 0.352273 0.590909
vt 0.352273 0.613636
vt 0.352273 0.636364
vt 0.352273 0.659091
vt 0.352273 0.681818
vt 0.352273 0.704545
vt 0.375000 0.227273
vt 0.397727 0.227273
vt 0.420455 0.227273
vt 0.443182 0.227273
vt 0.465909 0.227273
vt 0.488636 0.227273
vt 0.511364 0.227273
vt 0.534091 0.227273
vt 0.556818 0.227273
vt 0.579545 0.227273
vt 0.397727 0.000000
vt 0.397727 0.022727
vt 0.375000 0.022727
vt 0.397727 0.045455
vt 0.375000 0.045455
vt 0.397727 0.068182
vt 0.375000 0.068182
vt 0.397727 0.090909
vt 0.375000 0.090909
vt 0.397727 0.113636
vt 0.375000 0.113636
vt 0.397727 0.136364
vt 0.375000 0.136364
vt 0.397727 0.159091
vt 0.375000 0.159091
vt 0.397727 0.181818
vt 0.375000 0.181818
vt 0.397727 0.204545
vt 0.375000 0.204545
vt 0.420455 0.000000
vt 0.420455 0.022727
vt 0.420455 0.045455
vt 0.420455 0.068182
vt 0.420455 0.090909
vt 0.420455 0.113636
vt 0.420455 0.136364
vt 0.420455 0.159091
vt 0.420455 0.181818
vt 0.420455 0.204545
vt 0.443182 0.000000
vt 0.443182 0.022727
vt 0.443182 0.045455
vt 0.443182 0.068182
vt 0.443182 0.090909
vt 0.443182 0.113636
vt 0.443182 0.136364
vt 0.443182 0.159091
vt 0.443182 0.181818
vt 0.443182 0.204545
vt 0.465909 0.000000
vt 0.465909 0.022727
vt 0.465909 0.045455
vt 0.465909 0.068182
vt 0.465909 0.090909
vt 0.465909 0.113636
vt 0.465909 0.136364
vt 0.465909 0.159091
vt 0.465909 0.181818
vt 0.465909 0.204545
vt 0.488636 0.000000
vt 0.488636 0.022727
vt 0.488636 0.045455
vt 0.488636 0.068182
vt 0.488636 0.090909
vt 0.488636 0.113636
vt 0.488636 0.136364
vt 0.488636 0.159091
vt 0.488636 0.181818
vt 0.488636 0.204545
vt 0.511364 0.000000
vt 0.511364 0.022727
vt 0.511364 0.045455
vt 0.511364 0.068182
vt 0.511364 0.090909
vt 0.511364 0.113636
vt 0.511364 0.136364
vt 0.511364 0.159091
vt 0.511364 0.181818
vt 0.511364 0.204545
vt 0.534091 0.000000
vt 0.534091 0.022727
vt 0.534091 0.045455
vt 0.534091 0.068182
vt 0.534091 0.090909
vt 0.534091 0.113636
vt 0.534091 0.136364
vt 0.534091 0.159091
vt 0.534091 0.181818
vt 0.534091 0.204545
vt 0.556818 0.000000
vt 0.556818 0.022727
vt 0.556818 0.045455
vt 0.556818 0.068182
vt 0.556818 0.090909
vt 0.556818 0.113636
vt 0.556818 0.136364
vt 0.556818 0.159091
vt 0.556818 0.181818
vt 0.556818 0.204545
vt 0.579545 0.000000
vt 0.579545 0.022727
vt 0.579545 0.045455
vt 0.579545 0.068182
vt 0.579545 0.090909
vt 0.579545 0.113636
vt 0.579545 0.136364
vt 0.579545 0.159091
vt 0.579545 0.181818
vt 0.579545 0.204545
vt 0.602273 0.000000
vt 0.602273 0.022727
vt 0.602273 0.045455
vt 0.602273 0.068182
vt 0.602273 0.090909
vt 0.602273 0.113636
vt 0.602273 0.136364
vt 0.602273 0.159091
vt 0.602273 0.181818
vt 0.602273 0.204545
vt 0.625000 0.000000
vt 0.625000 0.022727
vt 0.625000 0.045455
vt 0.625000 0.068182
vt 0.625000 0.090909
vt 0.625000 0.113636
vt 0.625000 0.136364
vt 0.625000 0.159091
vt 0.625000 0.181818
vt 0.625000 0.204545
vt 0.375000 0.977273
vt 0.397727 0.977273
vt 0.397727 1.000000
vt 0.420455 0.977273
vt 0.420455 1.000000
vt 0.443182 0.977273
vt 0.443182 1.000000
vt 0.465909 0.977273
vt 0.465909 1.000000
vt 0.488636 0.977273
vt 0.488636 1.000000
vt 0.511364 0.977273
vt 0.511364 1.000000
vt 0.534091 0.977273
vt 0.534091 1.000000
vt 0.556818 0.977273
vt 0.556818 1.000000
vt 0.579545 0.977273
vt 0.579545 1.000000
vt 0.397727 0.772727
vt 0.375000 0.772727
vt 0.397727 0.795455
vt 0.375000 0.795455
vt 0.397727 0.818182
vt 0.375000 0.818182
vt 0.397727 0.840909
vt 0.375000 0.840909
vt 0.397727 0.863636
vt 0.375000 0.863636
vt 0.397727 0.886364
vt 0.375000 0.886364
vt 0.397727 0.909091
vt 0.375000 0.909091
vt 0.397727 0.931818
vt 0.375000 0.931818
vt 0.397727 0.954545
vt 0.375000 0.954545
vt 0.420455 0.772727
vt 0.420455 0.795455
vt 0.420455 0.818182
vt 0.420455 0.840909
vt 0.420455 0.863636
vt 0.420455 0.886364
vt 0.420455 0.909091
vt 0.420455 0.931818
vt 0.420455 0.954545
vt 0.443182 0.772727
vt 0.443182 0.795455
vt 0.443182 0.818182
vt 0.443182 0.840909
vt 0.443182 0.863636
vt 0.443182 0.886364
vt 0.443182 0.909091
vt 0.443182 0.931818
vt 0.443182 0.954545
vt 0.465909 0.772727
vt 0.465909 0.795455
vt 0.465909 0.818182
vt 0.465909 0.840909
vt 0.465909 0.863636
vt 0.465909 0.886364
vt 0.465909 0.909091
vt 0.465909 0.931818
vt 0.465909 0.954545
vt 0.488636 0.772727
vt 0.488636 0.795455
vt 0.488636 0.818182
vt 0.488636 0.840909
vt 0.488636 0.863636
vt 0.488636 0.886364
vt 0.488636 0.909091
vt 0.488636 0.931818
vt 0.488636 0.954545
vt 0.511364 0.772727
vt 0.511364 0.795455
vt 0.511364 0.818182
vt 0.511364 0.840909
vt 0.511364 0.863636
vt 0.511364 0.886364
vt 0.511364 0.909091
vt 0.511364 0.931818
vt 0.511364 0.954545
vt 0.534091 0.772727
vt 0.534091 0.795455
vt 0.534091 0.818182
vt 0.534091 0.840909
vt 0.534091 0.863636
vt 0.534091 0.886364
vt 0.534091 0.909091
vt 0.534091 0.931818
vt 0.534091 0.954545
vt 0.556818 0.772727
vt 0.556818 0.795455
vt 0.556818 0.818182
vt 0.556818 0.840909
vt 0.556818 0.863636
vt 0.556818 0.886364
vt 0.556818 0.909091
vt 0.556818 0.931818
vt 0.556818 0.954545
vt 0.579545 0.772727
vt 0.579545 0.795455
vt 0.579545 0.818182
vt 0.579545 0.840909
vt 0.579545 0.863636
vt 0.579545 0.886364
vt 0.579545 0.909091
vt 0.579545 0.931818
vt 0.579545 0.954545
vt 0.602273 0.772727
vt 0.602273 0.795455
vt 0.602273 0.818182
vt 0.602273 0.840909
vt 0.602273 0.863636
vt 0.602273 0.886364
vt 0.602273 0.909091
vt 0.602273 0.931818
vt 0.602273 0.954545
vt 0.625000 0.772727
vt 0.625000 0.795455
vt 0.625000 0.818182
vt 0.625000 0.840909
vt 0.625000 0.863636
vt 0.625000 0.886364
vt 0.625000 0.909091
vt 0.625000 0.931818
vt 0.625000 0.954545
s 0
usemtl Material
f 10/1/1 34/2/1 33/3/1 32/4/1 31/5/1 30/6/1 29/7/1 28/8/1 27/9/1 26/10/1 25/11/1 9/12/1 44/13/1 43/14/1 42/15/1 41/16/1 40/17/1 39/18/1 38/19/1 37/20/1 36/21/1 35/22/1 4/23/1 45/24/1 46/25/1 47/26/1 48/27/1 49/28/1 50/29/1 51/30/1 52/31/1 53/32/1 54/33/1 6/34/1 64/35/1 63/36/1 62/37/1 61/38/1 60/39/1 59/40/1 58/41/1 57/42/1 56/43/1 55/44/1 2/45/1 65/46/1 66/47/1 67/48/1 68/49/1 69/50/1 70/51/1 71/52/1 72/53/1 73/54/1 74/55/1 11/56/1 24/57/1 23/58/1 22/59/1 21/60/1 20/61/1 19/62/1 18/63/1 17/64/1 16/65/1 15/66/1
f 824/67/2 64/68/2 6/69/2 95/70/2
f 724/71/3 45/72/3 4/73/3 115/74/3
f 624/75/4 144/76/4 3/77/4 75/78/4
f 2/45/5 85/79/5 86/80/5 87/81/5 88/82/5 89/83/5 90/84/5 91/85/5 92/86/5 93/87/5 94/88/5 3/77/5 144/76/5 143/89/5 142/90/5 141/91/5 140/92/5 139/93/5 138/94/5 137/95/5 136/96/5 135/97/5 1/98/5 145/99/5 146/100/5 147/101/5 148/102/5 149/103/5 150/104/5 151/105/5 152/106/5 153/107/5 154/108/5 12/109/5 155/110/5 156/111/5 157/112/5 158/113/5 159/114/5 160/115/5 161/116/5 162/117/5 163/118/5 164/119/5 13/120/5 174/121/5 173/122/5 172/123/5 171/124/5 170/125/5 169/126/5 168/127/5 167/128/5 166/129/5 165/130/5 11/56/5 74/55/5 73/54/5 72/53/5 71/52/5 70/51/5 69/50/5 68/49/5 67/48/5 66/47/5 65/46/5
f 1/98/6 125/131/6 126/132/6 127/133/6 128/134/6 129/135/6 130/136/6 131/137/6 132/138/6 133/139/6 134/140/6 5/141/6 124/142/6 123/143/6 122/144/6 121/145/6 120/146/6 119/147/6 118/148/6 117/149/6 116/150/6 115/74/6 4/73/6 35/151/6 36/152/6 37/153/6 38/154/6 39/155/6 40/156/6 41/157/6 42/158/6 43/159/6 44/160/6 9/161/6 175/162/6 176/163/6 177/164/6 178/165/6 179/166/6 180/167/6 181/168/6 182/169/6 183/170/6 184/171/6 14/172/6 194/173/6 193/174/6 192/175/6 191/176/6 190/177/6 189/178/6 188/179/6 187/180/6 186/181/6 185/182/6 12/109/6 154/108/6 153/107/6 152/106/6 151/105/6 150/104/6 149/103/6 148/102/6 147/101/6 146/100/6 145/99/6
f 524/183/6 214/184/6 10/185/6 15/186/6
f 424/187/5 224/188/5 14/189/5 184/190/5
f 324/191/1 204/192/1 13/193/1 164/194/1
f 185/195/1 234/196/1 155/197/1 12/198/1
f 234/196/1 244/199/1 156/200/1 155/197/1
f 244/199/1 254/201/1 157/202/1 156/200/1
f 254/201/1 264/203/1 158/204/1 157/202/1
f 264/203/1 274/205/1 159/206/1 158/204/1
f 274/205/1 284/207/1 160/208/1 159/206/1
f 284/207/1 294/209/1 161/210/1 160/208/1
f 294/209/1 304/211/1 162/212/1 161/210/1
f 304/211/1 314/213/1 163/214/1 162/212/1
f 314/213/1 324/191/1 164/194/1 163/214/1
f 14/215/1 224/216/1 225/217/1 194/218/1
f 194/218/1 225/217/1 226/219/1 193/220/1
f 193/220/1 226/219/1 227/221/1 192/222/1
f 192/222/1 227/221/1 228/223/1 191/224/1
f 191/224/1 228/223/1 229/225/1 190/226/1
f 190/226/1 229/225/1 230/227/1 189/228/1
f 189/228/1 230/227/1 231/229/1 188/230/1
f 188/230/1 231/229/1 232/231/1 187/232/1
f 187/232/1 232/231/1 233/233/1 186/234/1
f 186/234/1 233/233/1 234/196/1 185/195/1
f 224/216/1 223/235/1 235/236/1 225/217/1
f 225/217/1 235/236/1 236/237/1 226/219/1
f 226/219/1 236/237/1 237/238/1 227/221/1
f 227/221/1 237/238/1 238/239/1 228/223/1
f 228/223/1 238/239/1 239/240/1 229/225/1
f 229/225/1 239/240/1 240/241/1 230/227/1
f 230/227/1 240/241/1 241/242/1 231/229/1
f 231/229/1 241/242/1 242/243/1 232/231/1
f 232/231/1 242/243/1 243/244/1 233/233/1
f 233/233/1 243/244/1 244/199/1 234/196/1
f 223/235/1 222/245/1 245/246/1 235/236/1
f 235/236/1 245/246/1 246/247/1 236/237/1
f 236/237/1 246/247/1 247/248/1 237/238/1
f 237/238/1 247/248/1 248/249/1 238/239/1
f 238/239/1 248/249/1 249/250/1 239/240/1
f 239/240/1 249/250/1 250/251/1 240/241/1
f 240/241/1 250/251/1 251/252/1 241/242/1
f 241/242/1 251/252/1 252/253/1 242/243/1
f 242/243/1 252/253/1 253/254/1 243/244/1
f 243/244/1 253/254/1 254/201/1 244/199/1
f 222/245/1 221/255/1 255/256/1 245/246/1
f 245/246/1 255/256/1 256/257/1 246/247/1
f 246/247/1 256/257/1 257/258/1 247/248/1
f 247/248/1 257/258/1 258/259/1 248/249/1
f 248/249/1 258/259/1 259/260/1 249/250/1
f 249/250/1 259/260/1 260/261/1 250/251/1
f 250/251/1 260/261/1 261/262/1 251/252/1
f 251/252/1 261/262/1 262/263/1 252/253/1
f 252/253/1 262/263/1 263/264/1 253/254/1
f 253/254/1 263/264/1 264/203/1 254/201/1
f 221/255/1 220/265/1 265/266/1 255/256/1
f 255/256/1 265/266/1 266/267/1 256/257/1
f 256/257/1 266/267/1 267/268/1 257/258/1
f 257/258/1 267/268/1 268/269/1 258/259/1
f 258/259/1 268/269/1 269/270/1 259/260/1
f 259/260/1 269/270/1 270/271/1 260/261/1
f 260/261/1 270/271/1 271/272/1 261/262/1
f 261/262/1 271/272/1 272/273/1 262/263/1
f 262/263/1 272/273/1 273/274/1 263/264/1
f 263/264/1 273/274/1 274/205/1 264/203/1
f 220/265/1 219/275/1 275/276/1 265/266/1
f 265/266/1 275/276/1 276/277/1 266/267/1
f 266/267/1 276/277/1 277/278/1 267/268/1
f 267/268/1 277/278/1 278/279/1 268/269/1
f 268/269/1 278/279/1 279/280/1 269/270/1
f 269/270/1 279/280/1 280/281/1 270/271/1
f 270/271/1 280/281/1 281/282/1 271/272/1
f 271/272/1 281/282/1 282/283/1 272/273/1
f 272/273/1 282/283/1 283/284/1 273/274/1
f 273/274/1 283/284/1 284/207/1 274/205/1
f 219/275/1 218/285/1 285/286/1 275/276/1
f 275/276/1 285/286/1 286/287/1 276/277/1
f 276/277/1 286/287/1 287/288/1 277/278/1
f 277/278/1 287/288/1 288/289/1 278/279/1
f 278/279/1 288/289/1 289/290/1 279/280/1
f 279/280/1 289/290/1 290/291/1 280/281/1
f 280/281/1 290/291/1 291/292/1 281/282/1
f 281/282/1 291/292/1 292/293/1 282/283/1
f 282/283/1 292/293/1 293/294/1 283/284/1
f 283/284/1 293/294/1 294/209/1 284/207/1
f 218/285/1 217/295/1 295/296/1 285/286/1
f 285/286/1 295/296/1 296/297/1 286/287/1
f 286/287/1 296/297/1 297/298/1 287/288/1
f 287/288/1 297/298/1 298/299/1 288/289/1
f 288/289/1 298/299/1 299/300/1 289/290/1
f 289/290/1 299/300/1 300/301/1 290/291/1
f 290/291/1 300/301/1 301/302/1 291/292/1
f 291/292/1 301/302/1 302/303/1 292/293/1
f 292/293/1 302/303/1 303/304/1 293/294/1
f 293/294/1 303/304/1 304/211/1 294/209/1
f 217/295/1 216/305/1 305/306/1 295/296/1
f 295/296/1 305/306/1 306/307/1 296/297/1
f 296/297/1 306/307/1 307/308/1 297/298/1
f 297/298/1 307/308/1 308/309/1 298/299/1
f 298/299/1 308/309/1 309/310/1 299/300/1
f 299/300/1 309/310/1 310/311/1 300/301/1
f 300/301/1 310/311/1 311/312/1 301/302/1
f 301/302/1 311/312/1 312/313/1 302/303/1
f 302/303/1 312/313/1 313/314/1 303/304/1
f 303/304/1 313/314/1 314/213/1 304/211/1
f 216/305/1 215/315/1 315/316/1 305/306/1
f 305/306/1 315/316/1 316/317/1 306/307/1
f 306/307/1 316/317/1 317/318/1 307/308/1
f 307/308/1 317/318/1 318/319/1 308/309/1
f 308/309/1 318/319/1 319/320/1 309/310/1
f 309/310/1 319/320/1 320/321/1 310/311/1
f 310/311/1 320/321/1 321/322/1 311/312/1
f 311/312/1 321/322/1 322/323/1 312/313/1
f 312/313/1 322/323/1 323/324/1 313/314/1
f 313/314/1 323/324/1 324/191/1 314/213/1
f 215/315/1 8/325/1 195/326/1 315/316/1
f 315/316/1 195/326/1 196/327/1 316/317/1
f 316/317/1 196/327/1 197/328/1 317/318/1
f 317/318/1 197/328/1 198/329/1 318/319/1
f 318/319/1 198/329/1 199/330/1 319/320/1
f 319/320/1 199/330/1 200/331/1 320/321/1
f 320/321/1 200/331/1 201/332/1 321/322/1
f 321/322/1 201/332/1 202/333/1 322/323/1
f 322/323/1 202/333/1 203/334/1 323/324/1
f 323/324/1 203/334/1 204/192/1 324/191/1
f 25/335/5 334/336/5 175/337/5 9/338/5
f 334/336/5 344/339/5 176/340/5 175/337/5
f 344/339/5 354/341/5 177/342/5 176/340/5
f 354/341/5 364/343/5 178/344/5 177/342/5
f 364/343/5 374/345/5 179/346/5 178/344/5
f 374/345/5 384/347/5 180/348/5 179/346/5
f 384/347/5 394/349/5 181/350/5 180/348/5
f 394/349/5 404/351/5 182/352/5 181/350/5
f 404/351/5 414/353/5 183/354/5 182/352/5
f 414/353/5 424/187/5 184/190/5 183/354/5
f 10/355/5 214/356/5 325/357/5 34/358/5
f 34/358/5 325/357/5 326/359/5 33/360/5
f 33/360/5 326/359/5 327/361/5 32/362/5
f 32/362/5 327/361/5 328/363/5 31/364/5
f 31/364/5 328/363/5 329/365/5 30/366/5
f 30/366/5 329/365/5 330/367/5 29/368/5
f 29/368/5 330/367/5 331/369/5 28/370/5
f 28/370/5 331/369/5 332/371/5 27/372/5
f 27/372/5 332/371/5 333/373/5 26/374/5
f 26/374/5 333/373/5 334/336/5 25/335/5
f 214/356/5 213/375/5 335/376/5 325/357/5
f 325/357/5 335/376/5 336/377/5 326/359/5
f 326/359/5 336/377/5 337/378/5 327/361/5
f 327/361/5 337/378/5 338/379/5 328/363/5
f 328/363/5 338/379/5 339/380/5 329/365/5
f 329/365/5 339/380/5 340/381/5 330/367/5
f 330/367/5 340/381/5 341/382/5 331/369/5
f 331/369/5 341/382/5 342/383/5 332/371/5
f 332/371/5 342/383/5 343/384/5 333/373/5
f 333/373/5 343/384/5 344/339/5 334/336/5
f 213/375/5 212/385/5 345/386/5 335/376/5
f 335/376/5 345/386/5 346/387/5 336/377/5
f 336/377/5 346/387/5 347/388/5 337/378/5
f 337/378/5 347/388/5 348/389/5 338/379/5
f 338/379/5 348/389/5 349/390/5 339/380/5
f 339/380/5 349/390/5 350/391/5 340/381/5
f 340/381/5 350/391/5 351/392/5 341/382/5
f 341/382/5 351/392/5 352/393/5 342/383/5
f 342/383/5 352/393/5 353/394/5 343/384/5
f 343/384/5 353/394/5 354/341/5 344/339/5
f 212/385/5 211/395/5 355/396/5 345/386/5
f 345/386/5 355/396/5 356/397/5 346/387/5
f 346/387/5 356/397/5 357/398/5 347/388/5
f 347/388/5 357/398/5 358/399/5 348/389/5
f 348/389/5 358/399/5 359/400/5 349/390/5
f 349/390/5 359/400/5 360/401/5 350/391/5
f 350/391/5 360/401/5 361/402/5 351/392/5
f 351/392/5 361/402/5 362/403/5 352/393/5
f 352/393/5 362/403/5 363/404/5 353/394/5
f 353/394/5 363/404/5 364/343/5 354/341/5
f 211/395/5 210/405/5 365/406/5 355/396/5
f 355/396/5 365/406/5 366/407/5 356/397/5
f 356/397/5 366/407/5 367/408/5 357/398/5
f 357/398/5 367/408/5 368/409/5 358/399/5
f 358/399/5 368/409/5 369/410/5 359/400/5
f 359/400/5 369/410/5 370/411/5 360/401/5
f 360/401/5 370/411/5 371/412/5 361/402/5
f 361/402/5 371/412/5 372/413/5 362/403/5
f 362/403/5 372/413/5 373/414/5 363/404/5
f 363/404/5 373/414/5 374/345/5 364/343/5
f 210/405/5 209/415/5 375/416/5 365/406/5
f 365/406/5 375/416/5 376/417/5 366/407/5
f 366/407/5 376/417/5 377/418/5 367/408/5
f 367/408/5 377/418/5 378/419/5 368/409/5
f 368/409/5 378/419/5 379/420/5 369/410/5
f 369/410/5 379/420/5 380/421/5 370/411/5
f 370/411/5 380/421/5 381/422/5 371/412/5
f 371/412/5 381/422/5 382/423/5 372/413/5
f 372/413/5 382/423/5 383/424/5 373/414/5
f 373/414/5 383/424/5 384/347/5 374/345/5
f 209/415/5 208/425/5 385/426/5 375/416/5
f 375/416/5 385/426/5 386/427/5 376/417/5
f 376/417/5 386/427/5 387/428/5 377/418/5
f 377/418/5 387/428/5 388/429/5 378/419/5
f 378/419/5 388/429/5 389/430/5 379/420/5
f 379/420/5 389/430/5 390/431/5 380/421/5
f 380/421/5 390/431/5 391/432/5 381/422/5
f 381/422/5 391/432/5 392/433/5 382/423/5
f 382/423/5 392/433/5 393/434/5 383/424/5
f 383/424/5 393/434/5 394/349/5 384/347/5
f 208/425/5 207/435/5 395/436/5 385/426/5
f 385/426/5 395/436/5 396/437/5 386/427/5
f 386/427/5 396/437/5 397/438/5 387/428/5
f 387/428/5 397/438/5 398/439/5 388/429/5
f 388/429/5 398/439/5 399/440/5 389/430/5
f 389/430/5 399/440/5 400/441/5 390/431/5
f 390/431/5 400/441/5 401/442/5 391/432/5
f 391/432/5 401/442/5 402/443/5 392/433/5
f 392/433/5 402/443/5 403/444/5 393/434/5
f 393/434/5 403/444/5 404/351/5 394/349/5
f 207/435/5 206/445/5 405/446/5 395/436/5
f 395/436/5 405/446/5 406/447/5 396/437/5
f 396/437/5 406/447/5 407/448/5 397/438/5
f 397/438/5 407/448/5 408/449/5 398/439/5
f 398/439/5 408/449/5 409/450/5 399/440/5
f 399/440/5 409/450/5 410/451/5 400/441/5
f 400/441/5 410/451/5 411/452/5 401/442/5
f 401/442/5 411/452/5 412/453/5 402/443/5
f 402/443/5 412/453/5 413/454/5 403/444/5
f 403/444/5 413/454/5 414/353/5 404/351/5
f 206/445/5 205/455/5 415/456/5 405/446/5
f 405/446/5 415/456/5 416/457/5 406/447/5
f 406/447/5 416/457/5 417/458/5 407/448/5
f 407/448/5 417/458/5 418/459/5 408/449/5
f 408/449/5 418/459/5 419/460/5 409/450/5
f 409/450/5 419/460/5 420/461/5 410/451/5
f 410/451/5 420/461/5 421/462/5 411/452/5
f 411/452/5 421/462/5 422/463/5 412/453/5
f 412/453/5 422/463/5 423/464/5 413/454/5
f 413/454/5 423/464/5 424/187/5 414/353/5
f 205/455/5 8/465/5 215/466/5 415/456/5
f 415/456/5 215/466/5 216/467/5 416/457/5
f 416/457/5 216/467/5 217/468/5 417/458/5
f 417/458/5 217/468/5 218/469/5 418/459/5
f 418/459/5 218/469/5 219/470/5 419/460/5
f 419/460/5 219/470/5 220/471/5 420/461/5
f 420/461/5 220/471/5 221/472/5 421/462/5
f 421/462/5 221/472/5 222/473/5 422/463/5
f 422/463/5 222/473/5 223/474/5 423/464/5
f 423/464/5 223/474/5 224/188/5 424/187/5
f 165/475/6 434/476/6 24/477/6 11/478/6
f 434/476/6 444/479/6 23/480/6 24/477/6
f 444/479/6 454/481/6 22/482/6 23/480/6
f 454/481/6 464/483/6 21/484/6 22/482/6
f 464/483/6 474/485/6 20/486/6 21/484/6
f 474/485/6 484/487/6 19/488/6 20/486/6
f 484/487/6 494/489/6 18/490/6 19/488/6
f 494/489/6 504/491/6 17/492/6 18/490/6
f 504/491/6 514/493/6 16/494/6 17/492/6
f 514/493/6 524/183/6 15/186/6 16/494/6
f 13/495/6 204/496/6 425/497/6 174/498/6
f 174/498/6 425/497/6 426/499/6 173/500/6
f 173/500/6 426/499/6 427/501/6 172/502/6
f 172/502/6 427/501/6 428/503/6 171/504/6
f 171/504/6 428/503/6 429/505/6 170/506/6
f 170/506/6 429/505/6 430/507/6 169/508/6
f 169/508/6 430/507/6 431/509/6 168/510/6
f 168/510/6 431/509/6 432/511/6 167/512/6
f 167/512/6 432/511/6 433/513/6 166/514/6
f 166/514/6 433/513/6 434/476/6 165/475/6
f 204/496/6 203/515/6 435/516/6 425/497/6
f 425/497/6 435/516/6 436/517/6 426/499/6
f 426/499/6 436/517/6 437/518/6 427/501/6
f 427/501/6 437/518/6 438/519/6 428/503/6
f 428/503/6 438/519/6 439/520/6 429/505/6
f 429/505/6 439/520/6 440/521/6 430/507/6
f 430/507/6 440/521/6 441/522/6 431/509/6
f 431/509/6 441/522/6 442/523/6 432/511/6
f 432/511/6 442/523/6 443/524/6 433/513/6
f 433/513/6 443/524/6 444/479/6 434/476/6
f 203/515/6 202/525/6 445/526/6 435/516/6
f 435/516/6 445/526/6 446/527/6 436/517/6
f 436/517/6 446/527/6 447/528/6 437/518/6
f 437/518/6 447/528/6 448/529/6 438/519/6
f 438/519/6 448/529/6 449/530/6 439/520/6
f 439/520/6 449/530/6 450/531/6 440/521/6
f 440/521/6 450/531/6 451/532/6 441/522/6
f 441/522/6 451/532/6 452/533/6 442/523/6
f 442/523/6 452/533/6 453/534/6 443/524/6
f 443/524/6 453/534/6 454/481/6 444/479/6
f 202/525/6 201/535/6 455/536/6 445/526/6
f 445/526/6 455/536/6 456/537/6 446/527/6
f 446/527/6 456/537/6 457/538/6 447/528/6
f 447/528/6 457/538/6 458/539/6 448/529/6
f 448/529/6 458/539/6 459/540/6 449/530/6
f 449/530/6 459/540/6 460/541/6 450/531/6
f 450/531/6 460/541/6 461/542/6 451/532/6
f 451/532/6 461/542/6 462/543/6 452/533/6
f 452/533/6 462/543/6 463/544/6 453/534/6
f 453/534/6 463/544/6 464/483/6 454/481/6
f 201/535/6 200/545/6 465/546/6 455/536/6
f 455/536/6 465/546/6 466/547/6 456/537/6
f 456/537/6 466/547/6 467/548/6 457/538/6
f 457/538/6 467/548/6 468/549/6 458/539/6
f 458/539/6 468/549/6 469/550/6 459/540/6
f 459/540/6 469/550/6 470/551/6 460/541/6
f 460/541/6 470/551/6 471/552/6 461/542/6
f 461/542/6 471/552/6 472/553/6 462/543/6
f 462/543/6 472/553/6 473/554/6 463/544/6
f 463/544/6 473/554/6 474/485/6 464/483/6
f 200/545/6 199/555/6 475/556/6 465/546/6
f 465/546/6 475/556/6 476/557/6 466/547/6
f 466/547/6 476/557/6 477/558/6 467/548/6
f 467/548/6 477/558/6 478/559/6 468/549/6
f 468/549/6 478/559/6 479/560/6 469/550/6
f 469/550/6 479/560/6 480/561/6 470/551/6
f 470/551/6 480/561/6 481/562/6 471/552/6
f 471/552/6 481/562/6 482/563/6 472/553/6
f 472/553/6 482/563/6 483/564/6 473/554/6
f 473/554/6 483/564/6 484/487/6 474/485/6
f 199/555/6 198/565/6 485/566/6 475/556/6
f 475/556/6 485/566/6 486/567/6 476/557/6
f 476/557/6 486/567/6 487/568/6 477/558/6
f 477/558/6 487/568/6 488/569/6 478/559/6
f 478/559/6 488/569/6 489/570/6 479/560/6
f 479/560/6 489/570/6 490/571/6 480/561/6
f 480/561/6 490/571/6 491/572/6 481/562/6
f 481/562/6 491/572/6 492/573/6 482/563/6
f 482/563/6 492/573/6 493/574/6 483/564/6
f 483/564/6 493/574/6 494/489/6 484/487/6
f 198/565/6 197/575/6 495/576/6 485/566/6
f 485/566/6 495/576/6 496/577/6 486/567/6
f 486/567/6 496/577/6 497/578/6 487/568/6
f 487/568/6 497/578/6 498/579/6 488/569/6
f 488/569/6 498/579/6 499/580/6 489/570/6
f 489/570/6 499/580/6 500/581/6 490/571/6
f 490/571/6 500/581/6 501/582/6 491/572/6
f 491/572/6 501/582/6 502/583/6 492/573/6
f 492/573/6 502/583/6 503/584/6 493/574/6
f 493/574/6 503/584/6 504/491/6 494/489/6
f 197/575/6 196/585/6 505/586/6 495/576/6
f 495/576/6 505/586/6 506/587/6 496/577/6
f 496/577/6 506/587/6 507/588/6 497/578/6
f 497/578/6 507/588/6 508/589/6 498/579/6
f 498/579/6 508/589/6 509/590/6 499/580/6
f 499/580/6 509/590/6 510/591/6 500/581/6
f 500/581/6 510/591/6 511/592/6 501/582/6
f 501/582/6 511/592/6 512/593/6 502/583/6
f 502/583/6 512/593/6 513/594/6 503/584/6
f 503/584/6 513/594/6 514/493/6 504/491/6
f 196/585/6 195/595/6 515/596/6 505/586/6
f 505/586/6 515/596/6 516/597/6 506/587/6
f 506/587/6 516/597/6 517/598/6 507/588/6
f 507/588/6 517/598/6 518/599/6 508/589/6
f 508/589/6 518/599/6 519/600/6 509/590/6
f 509/590/6 519/600/6 520/601/6 510/591/6
f 510/591/6 520/601/6 521/602/6 511/592/6
f 511/592/6 521/602/6 522/603/6 512/593/6
f 512/593/6 522/603/6 523/604/6 513/594/6
f 513/594/6 523/604/6 524/183/6 514/493/6
f 195/595/6 8/605/6 205/606/6 515/596/6
f 515/596/6 205/606/6 206/607/6 516/597/6
f 516/597/6 206/607/6 207/608/6 517/598/6
f 517/598/6 207/608/6 208/609/6 518/599/6
f 518/599/6 208/609/6 209/610/6 519/600/6
f 519/600/6 209/610/6 210/611/6 520/601/6
f 520/601/6 210/611/6 211/612/6 521/602/6
f 521/602/6 211/612/6 212/613/6 522/603/6
f 522/603/6 212/613/6 213/614/6 523/604/6
f 523/604/6 213/614/6 214/184/6 524/183/6
f 114/615/4 534/616/4 84/617/4 7/325/4
f 534/616/4 544/618/4 83/619/4 84/617/4
f 544/618/4 554/620/4 82/621/4 83/619/4
f 554/620/4 564/622/4 81/623/4 82/621/4
f 564/622/4 574/624/4 80/625/4 81/623/4
f 574/624/4 584/626/4 79/627/4 80/625/4
f 584/626/4 594/628/4 78/629/4 79/627/4
f 594/628/4 604/630/4 77/631/4 78/629/4
f 604/630/4 614/632/4 76/633/4 77/631/4
f 614/632/4 624/75/4 75/78/4 76/633/4
f 5/634/4 134/635/4 525/636/4 105/637/4
f 105/637/4 525/636/4 526/638/4 106/639/4
f 106/639/4 526/638/4 527/640/4 107/641/4
f 107/641/4 527/640/4 528/642/4 108/643/4
f 108/643/4 528/642/4 529/644/4 109/645/4
f 109/645/4 529/644/4 530/646/4 110/647/4
f 110/647/4 530/646/4 531/648/4 111/649/4
f 111/649/4 531/648/4 532/650/4 112/651/4
f 112/651/4 532/650/4 533/652/4 113/653/4
f 113/653/4 533/652/4 534/616/4 114/615/4
f 134/635/4 133/654/4 535/655/4 525/636/4
f 525/636/4 535/655/4 536/656/4 526/638/4
f 526/638/4 536/656/4 537/657/4 527/640/4
f 527/640/4 537/657/4 538/658/4 528/642/4
f 528/642/4 538/658/4 539/659/4 529/644/4
f 529/644/4 539/659/4 540/660/4 530/646/4
f 530/646/4 540/660/4 541/661/4 531/648/4
f 531/648/4 541/661/4 542/662/4 532/650/4
f 532/650/4 542/662/4 543/663/4 533/652/4
f 533/652/4 543/663/4 544/618/4 534/616/4
f 133/654/4 132/664/4 545/665/4 535/655/4
f 535/655/4 545/665/4 546/666/4 536/656/4
f 536/656/4 546/666/4 547/667/4 537/657/4
f 537/657/4 547/667/4 548/668/4 538/658/4
f 538/658/4 548/668/4 549/669/4 539/659/4
f 539/659/4 549/669/4 550/670/4 540/660/4
f 540/660/4 550/670/4 551/671/4 541/661/4
f 541/661/4 551/671/4 552/672/4 542/662/4
f 542/662/4 552/672/4 553/673/4 543/663/4
f 543/663/4 553/673/4 554/620/4 544/618/4
f 132/664/4 131/674/4 555/675/4 545/665/4
f 545/665/4 555/675/4 556/676/4 546/666/4
f 546/666/4 556/676/4 557/677/4 547/667/4
f 547/667/4 557/677/4 558/678/4 548/668/4
f 548/668/4 558/678/4 559/679/4 549/669/4
f 549/669/4 559/679/4 560/680/4 550/670/4
f 550/670/4 560/680/4 561/681/4 551/671/4
f 551/671/4 561/681/4 562/682/4 552/672/4
f 552/672/4 562/682/4 563/683/4 553/673/4
f 553/673/4 563/683/4 564/622/4 554/620/4
f 131/674/4 130/684/4 565/685/4 555/675/4
f 555/675/4 565/685/4 566/686/4 556/676/4
f 556/676/4 566/686/4 567/687/4 557/677/4
f 557/677/4 567/687/4 568/688/4 558/678/4
f 558/678/4 568/688/4 569/689/4 559/679/4
f 559/679/4 569/689/4 570/690/4 560/680/4
f 560/680/4 570/690/4 571/691/4 561/681/4
f 561/681/4 571/691/4 572/692/4 562/682/4
f 562/682/4 572/692/4 573/693/4 563/683/4
f 563/683/4 573/693/4 574/624/4 564/622/4
f 130/684/4 129/694/4 575/695/4 565/685/4
f 565/685/4 575/695/4 576/696/4 566/686/4
f 566/686/4 576/696/4 577/697/4 567/687/4
f 567/687/4 577/697/4 578/698/4 568/688/4
f 568/688/4 578/698/4 579/699/4 569/689/4
f 569/689/4 579/699/4 580/700/4 570/690/4
f 570/690/4 580/700/4 581/701/4 571/691/4
f 571/691/4 581/701/4 582/702/4 572/692/4
f 572/692/4 582/702/4 583/703/4 573/693/4
f 573/693/4 583/703/4 584/626/4 574/624/4
f 129/694/4 128/704/4 585/705/4 575/695/4
f 575/695/4 585/705/4 586/706/4 576/696/4
f 576/696/4 586/706/4 587/707/4 577/697/4
f 577/697/4 587/707/4 588/708/4 578/698/4
f 578/698/4 588/708/4 589/709/4 579/699/4
f 579/699/4 589/709/4 590/710/4 580/700/4
f 580/700/4 590/710/4 591/711/4 581/701/4
f 581/701/4 591/711/4 592/712/4 582/702/4
f 582/702/4 592/712/4 593/713/4 583/703/4
f 583/703/4 593/713/4 594/628/4 584/626/4
f 128/704/4 127/714/4 595/715/4 585/705/4
f 585/705/4 595/715/4 596/716/4 586/706/4
f 586/706/4 596/716/4 597/717/4 587/707/4
f 587/707/4 597/717/4 598/718/4 588/708/4
f 588/708/4 598/718/4 599/719/4 589/709/4
f 589/709/4 599/719/4 600/720/4 590/710/4
f 590/710/4 600/720/4 601/721/4 591/711/4
f 591/711/4 601/721/4 602/722/4 592/712/4
f 592/712/4 602/722/4 603/723/4 593/713/4
f 593/713/4 603/723/4 604/630/4 594/628/4
f 127/714/4 126/724/4 605/725/4 595/715/4
f 595/715/4 605/725/4 606/726/4 596/716/4
f 596/716/4 606/726/4 607/727/4 597/717/4
f 597/717/4 607/727/4 608/728/4 598/718/4
f 598/718/4 608/728/4 609/729/4 599/719/4
f 599/719/4 609/729/4 610/730/4 600/720/4
f 600/720/4 610/730/4 611/731/4 601/721/4
f 601/721/4 611/731/4 612/732/4 602/722/4
f 602/722/4 612/732/4 613/733/4 603/723/4
f 603/723/4 613/733/4 614/632/4 604/630/4
f 126/724/4 125/734/4 615/735/4 605/725/4
f 605/725/4 615/735/4 616/736/4 606/726/4
f 606/726/4 616/736/4 617/737/4 607/727/4
f 607/727/4 617/737/4 618/738/4 608/728/4
f 608/728/4 618/738/4 619/739/4 609/729/4
f 609/729/4 619/739/4 620/740/4 610/730/4
f 610/730/4 620/740/4 621/741/4 611/731/4
f 611/731/4 621/741/4 622/742/4 612/732/4
f 612/732/4 622/742/4 623/743/4 613/733/4
f 613/733/4 623/743/4 624/75/4 614/632/4
f 125/734/4 1/98/4 135/97/4 615/735/4
f 615/735/4 135/97/4 136/96/4 616/736/4
f 616/736/4 136/96/4 137/95/4 617/737/4
f 617/737/4 137/95/4 138/94/4 618/738/4
f 618/738/4 138/94/4 139/93/4 619/739/4
f 619/739/4 139/93/4 140/92/4 620/740/4
f 620/740/4 140/92/4 141/91/4 621/741/4
f 621/741/4 141/91/4 142/90/4 622/742/4
f 622/742/4 142/90/4 143/89/4 623/743/4
f 623/743/4 143/89/4 144/76/4 624/75/4
f 105/744/3 634/745/3 124/142/3 5/141/3
f 634/745/3 644/746/3 123/143/3 124/142/3
f 644/746/3 654/747/3 122/144/3 123/143/3
f 654/747/3 664/748/3 121/145/3 122/144/3
f 664/748/3 674/749/3 120/146/3 121/145/3
f 674/749/3 684/750/3 119/147/3 120/146/3
f 684/750/3 694/751/3 118/148/3 119/147/3
f 694/751/3 704/752/3 117/149/3 118/148/3
f 704/752/3 714/753/3 116/150/3 117/149/3
f 714/753/3 724/71/3 115/74/3 116/150/3
f 7/465/3 104/754/3 625/755/3 114/756/3
f 114/756/3 625/755/3 626/757/3 113/758/3
f 113/758/3 626/757/3 627/759/3 112/760/3
f 112/760/3 627/759/3 628/761/3 111/762/3
f 111/762/3 628/761/3 629/763/3 110/764/3
f 110/764/3 629/763/3 630/765/3 109/766/3
f 109/766/3 630/765/3 631/767/3 108/768/3
f 108/768/3 631/767/3 632/769/3 107/770/3
f 107/770/3 632/769/3 633/771/3 106/772/3
f 106/772/3 633/771/3 634/745/3 105/744/3
f 104/754/3 103/773/3 635/774/3 625/755/3
f 625/755/3 635/774/3 636/775/3 626/757/3
f 626/757/3 636/775/3 637/776/3 627/759/3
f 627/759/3 637/776/3 638/777/3 628/761/3
f 628/761/3 638/777/3 639/778/3 629/763/3
f 629/763/3 639/778/3 640/779/3 630/765/3
f 630/765/3 640/779/3 641/780/3 631/767/3
f 631/767/3 641/780/3 642/781/3 632/769/3
f 632/769/3 642/781/3 643/782/3 633/771/3
f 633/771/3 643/782/3 644/746/3 634/745/3
f 103/773/3 102/783/3 645/784/3 635/774/3
f 635/774/3 645/784/3 646/785/3 636/775/3
f 636/775/3 646/785/3 647/786/3 637/776/3
f 637/776/3 647/786/3 648/787/3 638/777/3
f 638/777/3 648/787/3 649/788/3 639/778/3
f 639/778/3 649/788/3 650/789/3 640/779/3
f 640/779/3 650/789/3 651/790/3 641/780/3
f 641/780/3 651/790/3 652/791/3 642/781/3
f 642/781/3 652/791/3 653/792/3 643/782/3
f 643/782/3 653/792/3 654/747/3 644/746/3
f 102/783/3 101/793/3 655/794/3 645/784/3
f 645/784/3 655/794/3 656/795/3 646/785/3
f 646/785/3 656/795/3 657/796/3 647/786/3
f 647/786/3 657/796/3 658/797/3 648/787/3
f 648/787/3 658/797/3 659/798/3 649/788/3
f 649/788/3 659/798/3 660/799/3 650/789/3
f 650/789/3 660/799/3 661/800/3 651/790/3
f 651/790/3 661/800/3 662/801/3 652/791/3
f 652/791/3 662/801/3 663/802/3 653/792/3
f 653/792/3 663/802/3 664/748/3 654/747/3
f 101/793/3 100/803/3 665/804/3 655/794/3
f 655/794/3 665/804/3 666/805/3 656/795/3
f 656/795/3 666/805/3 667/806/3 657/796/3
f 657/796/3 667/806/3 668/807/3 658/797/3
f 658/797/3 668/807/3 669/808/3 659/798/3
f 659/798/3 669/808/3 670/809/3 660/799/3
f 660/799/3 670/809/3 671/810/3 661/800/3
f 661/800/3 671/810/3 672/811/3 662/801/3
f 662/801/3 672/811/3 673/812/3 663/802/3
f 663/802/3 673/812/3 674/749/3 664/748/3
f 100/803/3 99/813/3 675/814/3 665/804/3
f 665/804/3 675/814/3 676/815/3 666/805/3
f 666/805/3 676/815/3 677/816/3 667/806/3
f 667/806/3 677/816/3 678/817/3 668/807/3
f 668/807/3 678/817/3 679/818/3 669/808/3
f 669/808/3 679/818/3 680/819/3 670/809/3
f 670/809/3 680/819/3 681/820/3 671/810/3
f 671/810/3 681/820/3 682/821/3 672/811/3
f 672/811/3 682/821/3 683/822/3 673/812/3
f 673/812/3 683/822/3 684/750/3 674/749/3
f 99/813/3 98/823/3 685/824/3 675/814/3
f 675/814/3 685/824/3 686/825/3 676/815/3
f 676/815/3 686/825/3 687/826/3 677/816/3
f 677/816/3 687/826/3 688/827/3 678/817/3
f 678/817/3 688/827/3 689/828/3 679/818/3
f 679/818/3 689/828/3 690/829/3 680/819/3
f 680/819/3 690/829/3 691/830/3 681/820/3
f 681/820/3 691/830/3 692/831/3 682/821/3
f 682/821/3 692/831/3 693/832/3 683/822/3
f 683/822/3 693/832/3 694/751/3 684/750/3
f 98/823/3 97/833/3 695/834/3 685/824/3
f 685/824/3 695/834/3 696/835/3 686/825/3
f 686/825/3 696/835/3 697/836/3 687/826/3
f 687/826/3 697/836/3 698/837/3 688/827/3
f 688/827/3 698/837/3 699/838/3 689/828/3
f 689/828/3 699/838/3 700/839/3 690/829/3
f 690/829/3 700/839/3 701/840/3 691/830/3
f 691/830/3 701/840/3 702/841/3 692/831/3
f 692/831/3 702/841/3 703/842/3 693/832/3
f 693/832/3 703/842/3 704/752/3 694/751/3
f 97/833/3 96/843/3 705/844/3 695/834/3
f 695/834/3 705/844/3 706/845/3 696/835/3
f 696/835/3 706/845/3 707/846/3 697/836/3
f 697/836/3 707/846/3 708/847/3 698/837/3
f 698/837/3 708/847/3 709/848/3 699/838/3
f 699/838/3 709/848/3 710/849/3 700/839/3
f 700/839/3 710/849/3 711/850/3 701/840/3
f 701/840/3 711/850/3 712/851/3 702/841/3
f 702/841/3 712/851/3 713/852/3 703/842/3
f 703/842/3 713/852/3 714/753/3 704/752/3
f 96/843/3 95/853/3 715/854/3 705/844/3
f 705/844/3 715/854/3 716/855/3 706/845/3
f 706/845/3 716/855/3 717/856/3 707/846/3
f 707/846/3 717/856/3 718/857/3 708/847/3
f 708/847/3 718/857/3 719/858/3 709/848/3
f 709/848/3 719/858/3 720/859/3 710/849/3
f 710/849/3 720/859/3 721/860/3 711/850/3
f 711/850/3 721/860/3 722/861/3 712/851/3
f 712/851/3 722/861/3 723/862/3 713/852/3
f 713/852/3 723/862/3 724/71/3 714/753/3
f 95/853/3 6/863/3 54/864/3 715/854/3
f 715/854/3 54/864/3 53/865/3 716/855/3
f 716/855/3 53/865/3 52/866/3 717/856/3
f 717/856/3 52/866/3 51/867/3 718/857/3
f 718/857/3 51/867/3 50/868/3 719/858/3
f 719/858/3 50/868/3 49/869/3 720/859/3
f 720/859/3 49/869/3 48/870/3 721/860/3
f 721/860/3 48/870/3 47/871/3 722/861/3
f 722/861/3 47/871/3 46/872/3 723/862/3
f 723/862/3 46/872/3 45/72/3 724/71/3
f 84/873/2 734/874/2 104/875/2 7/605/2
f 734/874/2 744/876/2 103/877/2 104/875/2
f 744/876/2 754/878/2 102/879/2 103/877/2
f 754/878/2 764/880/2 101/881/2 102/879/2
f 764/880/2 774/882/2 100/883/2 101/881/2
f 774/882/2 784/884/2 99/885/2 100/883/2
f 784/884/2 794/886/2 98/887/2 99/885/2
f 794/886/2 804/888/2 97/889/2 98/887/2
f 804/888/2 814/890/2 96/891/2 97/889/2
f 814/890/2 824/67/2 95/70/2 96/891/2
f 3/77/2 94/88/2 725/892/2 75/893/2
f 75/893/2 725/892/2 726/894/2 76/895/2
f 76/895/2 726/894/2 727/896/2 77/897/2
f 77/897/2 727/896/2 728/898/2 78/899/2
f 78/899/2 728/898/2 729/900/2 79/901/2
f 79/901/2 729/900/2 730/902/2 80/903/2
f 80/903/2 730/902/2 731/904/2 81/905/2
f 81/905/2 731/904/2 732/906/2 82/907/2
f 82/907/2 732/906/2 733/908/2 83/909/2
f 83/909/2 733/908/2 734/874/2 84/873/2
f 94/88/2 93/87/2 735/910/2 725/892/2
f 725/892/2 735/910/2 736/911/2 726/894/2
f 726/894/2 736/911/2 737/912/2 727/896/2
f 727/896/2 737/912/2 738/913/2 728/898/2
f 728/898/2 738/913/2 739/914/2 729/900/2
f 729/900/2 739/914/2 740/915/2 730/902/2
f 730/902/2 740/915/2 741/916/2 731/904/2
f 731/904/2 741/916/2 742/917/2 732/906/2
f 732/906/2 742/917/2 743/918/2 733/908/2
f 733/908/2 743/918/2 744/876/2 734/874/2
f 93/87/2 92/86/2 745/919/2 735/910/2
f 735/910/2 745/919/2 746/920/2 736/911/2
f 736/911/2 746/920/2 747/921/2 737/912/2
f 737/912/2 747/921/2 748/922/2 738/913/2
f 738/913/2 748/922/2 749/923/2 739/914/2
f 739/914/2 749/923/2 750/924/2 740/915/2
f 740/915/2 750/924/2 751/925/2 741/916/2
f 741/916/2 751/925/2 752/926/2 742/917/2
f 742/917/2 752/926/2 753/927/2 743/918/2
f 743/918/2 753/927/2 754/878/2 744/876/2
f 92/86/2 91/85/2 755/928/2 745/919/2
f 745/919/2 755/928/2 756/929/2 746/920/2
f 746/920/2 756/929/2 757/930/2 747/921/2
f 747/921/2 757/930/2 758/931/2 748/922/2
f 748/922/2 758/931/2 759/932/2 749/923/2
f 749/923/2 759/932/2 760/933/2 750/924/2
f 750/924/2 760/933/2 761/934/2 751/925/2
f 751/925/2 761/934/2 762/935/2 752/926/2
f 752/926/2 762/935/2 763/936/2 753/927/2
f 753/927/2 763/936/2 764/880/2 754/878/2
f 91/85/2 90/84/2 765/937/2 755/928/2
f 755/928/2 765/937/2 766/938/2 756/929/2
f 756/929/2 766/938/2 767/939/2 757/930/2
f 757/930/2 767/939/2 768/940/2 758/931/2
f 758/931/2 768/940/2 769/941/2 759/932/2
f 759/932/2 769/941/2 770/942/2 760/933/2
f 760/933/2 770/942/2 771/943/2 761/934/2
f 761/934/2 771/943/2 772/944/2 762/935/2
f 762/935/2 772/944/2 773/945/2 763/936/2
f 763/936/2 773/945/2 774/882/2 764/880/2
f 90/84/2 89/83/2 775/946/2 765/937/2
f 765/937/2 775/946/2 776/947/2 766/938/2
f 766/938/2 776/947/2 777/948/2 767/939/2
f 767/939/2 777/948/2 778/949/2 768/940/2
f 768/940/2 778/949/2 779/950/2 769/941/2
f 769/941/2 779/950/2 780/951/2 770/942/2
f 770/942/2 780/951/2 781/952/2 771/943/2
f 771/943/2 781/952/2 782/953/2 772/944/2
f 772/944/2 782/953/2 783/954/2 773/945/2
f 773/945/2 783/954/2 784/884/2 774/882/2
f 89/83/2 88/82/2 785/955/2 775/946/2
f 775/946/2 785/955/2 786/956/2 776/947/2
f 776/947/2 786/956/2 787/957/2 777/948/2
f 777/948/2 787/957/2 788/958/2 778/949/2
f 778/949/2 788/958/2 789/959/2 779/950/2
f 779/950/2 789/959/2 790/960/2 780/951/2
f 780/951/2 790/960/2 791/961/2 781/952/2
f 781/952/2 791/961/2 792/962/2 782/953/2
f 782/953/2 792/962/2 793/963/2 783/954/2
f 783/954/2 793/963/2 794/886/2 784/884/2
f 88/82/2 87/81/2 795/964/2 785/955/2
f 785/955/2 795/964/2 796/965/2 786/956/2
f 786/956/2 796/965/2 797/966/2 787/957/2
f 787/957/2 797/966/2 798/967/2 788/958/2
f 788/958/2 798/967/2 799/968/2 789/959/2
f 789/959/2 799/968/2 800/969/2 790/960/2
f 790/960/2 800/969/2 801/970/2 791/961/2
f 791/961/2 801/970/2 802/971/2 792/962/2
f 792/962/2 802/971/2 803/972/2 793/963/2
f 793/963/2 803/972/2 804/888/2 794/886/2
f 87/81/2 86/80/2 805/973/2 795/964/2
f 795/964/2 805/973/2 806/974/2 796/965/2
f 796/965/2 806/974/2 807/975/2 797/966/2
f 797/966/2 807/975/2 808/976/2 798/967/2
f 798/967/2 808/976/2 809/977/2 799/968/2
f 799/968/2 809/977/2 810/978/2 800/969/2
f 800/969/2 810/978/2 811/979/2 801/970/2
f 801/970/2 811/979/2 812/980/2 802/971/2
f 802/971/2 812/980/2 813/981/2 803/972/2
f 803/972/2 813/981/2 814/890/2 804/888/2
f 86/80/2 85/79/2 815/982/2 805/973/2
f 805/973/2 815/982/2 816/983/2 806/974/2
f 806/974/2 816/983/2 817/984/2 807/975/2
f 807/975/2 817/984/2 818/985/2 808/976/2
f 808/976/2 818/985/2 819/986/2 809/977/2
f 809/977/2 819/986/2 820/987/2 810/978/2
f 810/978/2 820/987/2 821/988/2 811/979/2
f 811/979/2 821/988/2 822/989/2 812/980/2
f 812/980/2 822/989/2 823/990/2 813/981/2
f 813/981/2 823/990/2 824/67/2 814/890/2
f 85/79/2 2/45/2 55/991/2 815/982/2
f 815/982/2 55/991/2 56/992/2 816/983/2
f 816/983/2 56/992/2 57/993/2 817/984/2
f 817/984/2 57/993/2 58/994/2 818/985/2
f 818/985/2 58/994/2 59/995/2 819/986/2
f 819/986/2 59/995/2 60/996/2 820/987/2
f 820/987/2 60/996/2 61/997/2 821/988/2
f 821/988/2 61/997/2 62/998/2 822/989/2
f 822/989/2 62/998/2 63/999/2 823/990/2
f 823/990/2 63/999/2 64/68/2 824/67/2
